<svg xmlns="http://www.w3.org/2000/svg" width="60" height="60" fill="none" viewBox="0 0 60 60"><circle cx="30" cy="30" r="30" fill="#FFD3A2"/><path fill="#CDBDB2" fill-rule="evenodd" d="m36.844 41.654-4.198 1.127V41.3l-.334-.34h-2.403v2.949h2.57l3.163-1.39z" clip-rule="evenodd"/><path fill="#CDBDB2" fill-rule="evenodd" d="m23.156 41.654 4.106 1.127V41.3l.35-.34H30v2.949h-2.57l-3.164-1.39z" clip-rule="evenodd"/><path fill="#393939" fill-rule="evenodd" d="m32.312 38.444.335 2.855-.426-.34H27.78l-.518.34.35-2.855.685-.432 3.422.077z" clip-rule="evenodd"/><path fill="#F89C35" fill-rule="evenodd" d="m34.624 19.074-2.053 4.862-.943 14.153h-3.33l-1.035-14.153-1.886-4.862z" clip-rule="evenodd"/><path fill="#F89D35" fill-rule="evenodd" d="M43.597 29.755 46 36.792l-5.992-.355H36.16v-3.04l.167-6.235.867.679z" clip-rule="evenodd"/><path fill="#D87C30" fill-rule="evenodd" d="m39.064 30.542-7.012.17.776 3.642 3.33-.864z" clip-rule="evenodd"/><path fill="#EA8D3A" fill-rule="evenodd" d="m39.064 30.619-2.905 2.778v2.778z" clip-rule="evenodd"/><path fill="#F89D35" fill-rule="evenodd" d="m36.16 33.49-3.423.863-1.11 3.735.776.433 3.756-2.254z" clip-rule="evenodd"/><path fill="#EB8F35" fill-rule="evenodd" d="m36.16 36.268.684 5.386-4.532-3.21z" clip-rule="evenodd"/><path fill="#EA8E3A" fill-rule="evenodd" d="m32.055 30.712-.425 7.377 1.276-3.766z" clip-rule="evenodd"/><path fill="#D87C30" fill-rule="evenodd" d="m40.1 36.36-3.94-.092.685 5.386z" clip-rule="evenodd"/><path fill="#EB8F35" fill-rule="evenodd" d="m44.114 44-7.27-2.346L40.1 36.36l5.901.432z" clip-rule="evenodd"/><path fill="#E8821E" fill-rule="evenodd" d="m32.57 23.936 3.68 3.133 2.813 3.473-7.01.262z" clip-rule="evenodd"/><path fill="#DFCEC3" fill-rule="evenodd" d="m36.844 41.654-4.532-3.21.334 2.778v1.559l3.087-.602zm-13.688 0 4.456-3.21-.35 2.778v1.559l-3.072-.602z" clip-rule="evenodd"/><path fill="#393939" fill-rule="evenodd" d="m33.94 32.27-.943 2.006 3.331-.88z" clip-rule="evenodd"/><path fill="#E88F35" fill-rule="evenodd" d="m44.207 15-11.635 8.936 1.962-4.861z" clip-rule="evenodd"/><path fill="#8E5A30" fill-rule="evenodd" d="m44.205 15 1.537 4.769-.852 5.217.593.34-.852.786.685.602-.943.864.593.525-1.369 1.729-6.418-1.991c-3.133-2.547-4.684-3.843-4.624-3.905s3.955-3.04 11.65-8.936" clip-rule="evenodd"/><path fill="#F89D35" fill-rule="evenodd" d="M16.403 29.755 14 36.792l5.992-.355h3.848v-3.04l-.167-6.235-.852.679z" clip-rule="evenodd"/><path fill="#D87C30" fill-rule="evenodd" d="m20.937 30.542 7.01.17-.76 3.642-3.346-.864z" clip-rule="evenodd"/><path fill="#EA8D3A" fill-rule="evenodd" d="m20.937 30.619 2.904 2.778v2.778z" clip-rule="evenodd"/><path fill="#F89D35" fill-rule="evenodd" d="m23.84 33.49 3.423.863 1.11 3.735-.76.433-3.772-2.254z" clip-rule="evenodd"/><path fill="#EB8F35" fill-rule="evenodd" d="m23.84 36.268-.684 5.386 4.457-3.133z" clip-rule="evenodd"/><path fill="#EA8E3A" fill-rule="evenodd" d="m27.946 30.712.425 7.377-1.276-3.766z" clip-rule="evenodd"/><path fill="#D87C30" fill-rule="evenodd" d="m19.902 36.36 3.94-.092-.685 5.386z" clip-rule="evenodd"/><path fill="#EB8F35" fill-rule="evenodd" d="m15.886 44 7.27-2.346L19.9 36.36l-5.9.432z" clip-rule="evenodd"/><path fill="#E8821E" fill-rule="evenodd" d="m27.43 23.936-3.68 3.133-2.814 3.473 7.012.262z" clip-rule="evenodd"/><path fill="#393939" fill-rule="evenodd" d="m26.06 32.27.944 2.006-3.331-.88z" clip-rule="evenodd"/><path fill="#E88F35" fill-rule="evenodd" d="m15.796 15 11.634 8.936-1.962-4.861z" clip-rule="evenodd"/><path fill="#8E5A30" fill-rule="evenodd" d="m15.795 15-1.537 4.769.852 5.217-.593.34.852.786-.685.602.943.864-.593.525 1.369 1.729 6.418-1.991c3.133-2.547 4.685-3.843 4.624-3.905s-3.94-3.04-11.65-8.936" clip-rule="evenodd"/></svg>