<svg xmlns="http://www.w3.org/2000/svg" width="60" height="60" fill="none" viewBox="0 0 60 60"><circle cx="30" cy="30" r="30" fill="#D9ECFF"/><path fill="#278FFC" fill-rule="evenodd" d="M30 24.924c-3.13 0-5.544 1.77-6.89 3.011a.51.51 0 0 1-.705-.006l-2.111-2.074a.49.49 0 0 1 .003-.707C21.906 23.646 25.299 21 30 21s8.094 2.646 9.703 4.148c.205.19.203.511.003.707l-2.111 2.074a.51.51 0 0 1-.706.006c-1.345-1.24-3.758-3.011-6.889-3.011m-15.622 7.019a.5.5 0 0 1-.03-.713l2.017-2.161a.5.5 0 0 1 .7-.03l5.957 5.362a.5.5 0 0 0 .665.003l5.982-5.287a.5.5 0 0 1 .662 0l5.982 5.287a.5.5 0 0 0 .665-.003l5.957-5.363a.5.5 0 0 1 .7.03l2.018 2.162a.5.5 0 0 1-.031.713l-8.62 7.759a.5.5 0 0 1-.665.003l-6.006-5.31a.5.5 0 0 0-.662 0l-6.006 5.31a.5.5 0 0 1-.666-.003z" clip-rule="evenodd"/></svg>