<svg xmlns="http://www.w3.org/2000/svg" width="36" height="36" fill="none"><circle cx="18" cy="18" r="16" fill="#EAEEF3"/><mask id="a" width="17" height="17" x="12" y="5" mask-type="alpha" maskUnits="userSpaceOnUse"><path fill="#ED64A6" d="M12.69 11.039c0-1.047.564-2.012 1.476-2.525L18.994 5.8a2.9 2.9 0 0 1 2.84 0l4.827 2.715a2.9 2.9 0 0 1 1.477 2.525v5.301a2.9 2.9 0 0 1-1.477 2.525l-4.827 2.716a2.9 2.9 0 0 1-2.84 0l-4.828-2.716a2.9 2.9 0 0 1-1.476-2.524z"/></mask><g fill-rule="evenodd" clip-rule="evenodd" mask="url(#a)"><path fill="#C2E0FF" d="m12.69 9.345 7.724 4.345 7.724-4.345L20.414 5z"/><path fill="#39F" d="M20.414 13.69v8.69l7.724-4.346v-8.69z"/><path fill="#007FFF" d="m12.69 18.034 7.724 4.345v-8.69l-7.725-4.344z"/></g><mask id="b" width="16" height="17" x="4" y="10" mask-type="alpha" maskUnits="userSpaceOnUse"><path fill="#ED64A6" d="M4 15.867c0-1.047.564-2.012 1.476-2.525l4.828-2.716a2.9 2.9 0 0 1 2.84 0l4.828 2.716a2.9 2.9 0 0 1 1.476 2.524v5.302a2.9 2.9 0 0 1-1.476 2.525l-4.828 2.715a2.9 2.9 0 0 1-2.84 0l-4.828-2.715A2.9 2.9 0 0 1 4 21.168z"/></mask><g fill-rule="evenodd" clip-rule="evenodd" mask="url(#b)"><path fill="#C2E0FF" d="m4 14.172 7.724 4.345 7.724-4.345-7.724-4.344z"/><path fill="#39F" d="M11.724 18.517v8.69l7.724-4.345v-8.69z"/><path fill="#66B2FF" d="m4 22.862 7.724 4.345v-8.69L4 14.172z"/></g><mask id="c" width="16" height="17" x="16" y="13" mask-type="alpha" maskUnits="userSpaceOnUse"><path fill="#ED64A6" d="M16.552 18.763c0-1.047.564-2.012 1.476-2.525l4.828-2.715a2.9 2.9 0 0 1 2.84 0l4.827 2.715A2.9 2.9 0 0 1 32 18.763v5.302a2.9 2.9 0 0 1-1.477 2.524l-4.827 2.716a2.9 2.9 0 0 1-2.84 0l-4.828-2.716a2.9 2.9 0 0 1-1.476-2.524z"/></mask><g fill-rule="evenodd" clip-rule="evenodd" mask="url(#c)"><path fill="#C2E0FF" d="m16.552 17.069 7.724 4.345L32 17.069l-7.724-4.345z"/><path fill="#39F" d="M24.276 21.414v8.69L32 25.758v-8.69l-7.724 4.345z"/><path fill="#66B2FF" d="m16.552 25.759 7.724 4.344v-8.69l-7.724-4.344z"/></g></svg>