<svg xmlns="http://www.w3.org/2000/svg" width="60" height="60" fill="none" viewBox="0 0 60 60"><circle cx="30" cy="30" r="30" fill="#F0B90B"/><path fill="#fff" d="m17.578 26.435 3.579 3.577-3.579 3.577L14 30.012zm12.422 0 3.578 3.577L30 33.59l-3.578-3.577zm12.422 0L46 30.012l-3.578 3.577-3.579-3.577zM30.034 14l9.795 9.792-3.578 3.577-9.795-9.792z"/><path fill="#fff" d="m30.046 14-9.795 9.792 3.578 3.577 9.796-9.792zm-.012 32 9.795-9.792-3.578-3.577-9.795 9.792z"/><path fill="#fff" d="m30.046 46-9.795-9.792 3.578-3.577 9.796 9.792z"/></svg>