<svg xmlns="http://www.w3.org/2000/svg" viewBox="70.391 142 296.259 255"><svg xmlns="http://www.w3.org/2000/svg" xmlns:xlink="http://www.w3.org/1999/xlink" xml:space="preserve" width="86.109" height="115" x="140.391" y="212" preserveAspectRatio="xMinYMin" style="overflow:visible" viewBox="299.2 43.9 1057.628 1412.4"><path d="M736 1451.8c-60-26.8-120.2-64.6-178.9-112.3-46.6-38-92.5-82.3-136.2-131.7-74.4-84.2-116.6-153.4-118.3-156.3l-3.4-5.6V409.1l88-35.5c8.3-79.1 16.7-170.6 12.8-214.1L389.9 43.9l37.4 18.3c4.1 2 101.3 50.6 154.3 170.6 8.5 19.4 16.9 36.9 24.8 52.4L745.6 229l224.5 90.6c19-30.2 33.3-59.1 48.4-89.4 5.1-10.2 10.3-20.8 15.9-31.7 42.2-82.5 92.6-114.8 94.7-116.2l43.7-27.5-7.9 51c-.6 4-15.6 99.6-35.9 150.1-4.3 10.8-9.2 22-13.8 32.9-11.3 26.3-24.7 57.7-28.6 77.7l105.5 42.6v362.7c19.6 18.6 27.9 29.8 33.5 37.5 3.4 4.6 4.5 6.1 6.5 7.6 4 3.1 10 5.4 16.8 8 11.5 4.4 25.9 9.8 39.8 22.5 1.5 1.4 3.4 3 5.3 4.8 11.5 10.1 28.8 25.5 42.1 43.3 19.1 25.5 25 49.6 17.7 71.7-7.3 22-17.7 33.9-25.2 42.6-6.6 7.6-9 10.4-10 18.3-.9 7.4-1.1 14.2-1.4 20.9-.7 19.1-1.5 38.9-17.6 58.6-10.5 12.8-28.5 21.7-45.9 30.4-9.5 4.7-25.2 12.5-28.9 16.9-12.3 26.6-26.4 32.8-49.6 35.4-1.5.2-3.2.3-5 .3-10.1 0-27.3-2.6-54.5-6.8-7.2-1.1-14.6-2.3-21.8-3.3-75.4 90-193 206.5-338.7 271.5l-9.6 4.3z" class="st4" style="fill:#333"/><path d="M745.5 254.4 323 425v614.4s167.6 277.3 422.5 391c254.9-113.7 422.5-391 422.5-391V425z"/><path d="M745.6 1401.7c-218.6-102.5-371.2-330-396.7-369.9V442.6l396.7-160.1 396.7 160.1v589.3c-25.5 39.7-178.4 267.4-396.7 369.8" class="st11" style="fill:#1a1a1a"/><path d="M1331.4 959.8c-12.1 36.2-32.8 36.2-36.2 65.6-3.4 29.3 1.7 48.3-13.8 67.3s-69 32.8-77.7 51.8c-8.6 19-15.5 20.7-31.1 22.4-13.2 1.5-80.2-12.1-117.9-15-6.6-.5-12.3-.7-16.7-.5-29.3 1.7-55.2 3.4-81.1 3.4s-48.3-3.4-48.3-3.4 7.5 69.9 19.3 130.7c-8.1 7.1-16.3 14-24.8 21-47.2 38.6-100.1 74.2-157.5 101.1-93.6-43.9-175.2-110.8-239.8-176-8.6-8.6-16.8-17.2-24.8-25.7-26.3-28.2-49.2-55.4-68.4-79.6-7.5-9.5-14.4-18.5-20.7-26.9 22.1-110.7 56-261.5 87.1-320.6-108.6-152.1-117.2-141.7-108.6-186.6s29.3-93.2 31.1-124.2c.4-6.9 2-22.1 4.2-42.6 7.8-71.7 22.9-206.8 17.8-264.6L417 83.3s93 45.4 143.1 159c19.9 45.2 36.3 75.7 50.1 97.2 20.9 32.6 35.9 44.7 48.3 56.1 20.7 19 19 39.7 19 39.7s179.5-13.8 226 6.9c23.8-25.2 43-48.2 59-69.8 43.2-58.2 63.9-106.5 92.8-163.1 39.7-77.6 86.3-107 86.3-107s-14.9 96.3-34.5 144.9-48.3 105.3-44.9 134.6c1 8.6 1.9 19.7 2.4 31.8 1.4 29.3 1.2 64.8-2.4 85.5-5.2 29.3-1.7 48.3-1.7 48.3s15.5 31 39.7 51.8c24.2 20.7 34.5 32.8 31.1 53.5-3.5 20.7-22.4 63.9-10.3 89.7 7.9 6.2 15 11.9 21.4 17.2 65.5 54 61.1 65 75.2 76 15.5 12.1 36.2 12.1 55.2 29.3s70.7 58.7 58.6 94.9"/><path d="M1240.9 1031c-10.4-19.4-49.2-31.1-75.1-49.2-10.1-7.1-17.8-17.2-23.4-27-8.9-15.4-12.8-29.9-12.8-29.9s-25.9-10.3-32.4-23.3c-2.7-5.4-6.5-13.5-10.8-21.6-6-11.3-12.9-22.5-18.9-26.2-10.1-6.3-56.4-41.3-58.2-42.7 1.9.5 63.6 17.1 78.9 38.8 15.5 22 40.1 45.3 40.1 45.3s2.6-9.1 13-23.3c-6.5-3.9-29.8-6-29.8-6s6.5-5.6 29.8-6.9c.4 0 .8 0 1.1-.1 19.1-.8 53 4.3 65.2 6.2q1.2.15 2.1.3c1.6.3 2.5.4 2.5.4-.5-.3-1-.5-1.5-.8-3.6-1.9-7.1-4.2-10.6-6.9-7.7-6-12.2-12-16.5-17.9-5.8-7.9-14.5-19.8-41.3-43.3-10.1-8.9-22.8-19.4-38.9-32.1l-.1-.1-.1-.1c-1-.8-1.9-1.6-2.7-2.5l-.1-.1c-11.7-10.8-52.6-49-62.6-62.3-11.7-15.5 0-93.2 0-93.2s6.5 10.3 20.7 41.4c6.2-3 20.9-2.4 31.8-1.5 7.4.7 13 1.5 13 1.5.7-4.4 1.3-7.7-21.5-27.2-19.6-16.8-33.8-38.2-41.1-50.7 0 0-24.9-20.5-44.3-56.7 8.5 9.3 24.7 19.2 34.9 24.9-.5-10.3-.2-25.5 3.1-44.1 3.8-21.5 3.3-63.2 1.3-92.3-.5-6.3-.9-11.9-1.5-16.7-3.6-30.5 14.4-72.4 33.4-116.7 4.5-10.6 9.2-21.6 13.4-31.8 3.7-9.2 7.3-20.4 10.6-32.4.2-.7.4-1.4.6-2.2-.3.5-.7 1.1-1 1.7-1 1.7-2 3.4-3 5.2-2.4 4.3-4.8 8.8-7.2 13.4-5.4 10.6-10.7 21.2-15.7 31.3-21.1 42.3-41.4 83.1-75.3 129.9-17.5 24.2-38.7 50-65.5 78.3 0 0 12.5 15.4 6.1 41.3-9.4-21.2-33.3-32.6-37.6-34.5-.2 0-.3-.1-.4-.1-.2-.1-.3-.1-.3-.1l-22.6-5.1c-8.6-1.2-20.3-2.3-35.8-3 3.3 5.1 9.3 13.2 17 19 9.3 6.9 15.5 15 23.4 27.2q3.6 5.55 7.8 12.3c12.3 19.4 17.5 15.5 44.6 31.1 27.2 15.5 41.4 20.7 49.2 38.8 5.4 12.6 3.3 19 8.1 47.3 2.1 12.2 5.5 28.5 11.3 51.1-8.1-10.8-20.1-39.4-28.3-62.3-3.5-9.8-6.3-18.6-7.9-24.4-5.2-19.4-25.9-32.3-40.1-38.7-14.2-6.5-37.5-24.4-37.5-24.4s-10.4-17.8-25.9-37.2q-1.8-2.25-4.5-4.5c-.1 0-.1-.1-.2-.1-1.8-1.5-3.7-3-6-4.6-17.7-12.2-48.3-24.8-64.8-31.2-4.6 0-9.1.1-13.6.2-11.9.3-23.4.7-33.9 1.1 0 0-2.7.8-7.1 2.5-12.9 4.7-41 16.1-64.1 33.4v-.2c2.7-18 15.5-32.6 15.5-32.6-7.7 0-15.1-2.3-20.4-8.1-5.8-6.4-8.5-13.8-7.2-22.2-.2-2.2-1.4-9.3-9.7-16.9-1.2-1.1-2.3-2.2-3.6-3.2-13.5-12.2-30.1-27.2-52.3-63-14-22.5-30.2-53.1-49.3-96.5-18.8-42.4-44.2-74.6-67.6-97.7 40.4 48.8 74.1 175.1 82.1 198.1 1.1 3.1 2.1 6 3.2 8.9 7.9 21.6 18.5 41.6 73.2 99.8 3.9 27.2-11.7 59.5-11.7 59.5l-22 20.7c-22 20.7-1.3 66-1.3 66l50.5-40.1s-47.9 59.5-98.3 91.9c-41.4 11.7-64.7-3.9-64.7-3.9l-1.3 15.5s-35.8-11.5-65.3-46c-5-5.9-9.9-12.5-14.4-19.9 0 0 0-.1-.1-.1-.2.9-.1 2 0 3.1v.2c0 .3 0 .6.1.9v.1c.1.5.2 1 .4 1.5 0 .1 0 .1.1.2 9.7 34.7 108.4 151.7 108.4 151.7l27.5-16.7c-.5.6-3.8 4.6-25.6 31-45.1 81.9-77.7 243.5-94.6 344.1 19.2 24.2 42.1 51.4 68.4 79.6-1.2-41.9-.7-100.3 8-150.6 0 25.3 9.9 116.2 16.8 176.4 64.6 65.2 146.2 132.1 239.8 176 57.4-26.9 110.3-62.5 157.5-101.1-13.1-61.7-21.5-137.2-22.8-148.6-.1-.9-.1-1.7-.1-2.6-18.3 1.4-59.4 6.8-102.7 28 45.3-46.6 111.4-49.1 111.4-49.1 1.1-.3 20.2-6.1 46.4-5.2 2.8.1 5.7.3 8.6.5h.5c-15.5-7.2-55.7-29.1-101-71.7q8.4 3.45 17.4 7.5c1 .4 1.9.9 2.9 1.3.1 0 .2.1.3.1 26.3 12.1 54.6 27.1 77.4 39.2 3.2 1.7 6.4 3.4 9.4 4.9 12 6.3 26.4 11.1 40 14.1 2.5.5 4.9 1 7.3 1.5 3.6.7 7.1 1.2 10.5 1.6 12.6 1.5 22.9 1 27.7-1.6 7-3.8 28.3-6.8 49.5-9.7 14.3-1.9 28.5-3.8 38.4-5.9 24.6-5.2 75.1-27.2 104.8-38.8 29.5-12 21.8-18.4 11.5-37.8m-525.4-29.8c-42.7-11.7-95.8-31.1-110-54.4s-20.7-40.1-31-64.7c-8.8-21-7.3-65.4-6.7-78.1.1-2.2.2-3.4.2-3.4s16.8 67.3 50.4 106.1c33.7 38.8 22 46.6 66 56.9 28.5 6.7 46.7 17.7 61.5 29.3.1.1.3.2.4.3 0 0 .1 0 .1.1l.1.1c.1 0 .2.1.2.2.3.2.6.4.9.7 0 0 .1.1.2.1 1.7 1.3 3.3 2.6 4.9 3.9.2.2.5.4.7.6.9.8 1.8 1.5 2.7 2.3.5.4.9.8 1.4 1.2 2.6 2.2 5.1 4.3 7.6 6.4.4.3.7.6 1 .9.8.7 1.6 1.3 2.3 1.9 20.3 16.5 38.1 61.6 38.8 63.4-1.4-2-49.7-62.3-91.7-73.8m100.4-259.5c1.7-.8 25.2-11.3 29-20-20.1 4.5-62.1 8.4-113.2-35.6 19.4-11 45.9-22.6 45.9-22.6s-7.1-15.5-33.7-20.7c59.5-22.7 85.4 20.7 97.1 29.1s23.3-6.5 23.3-6.5c11 22.6-9 35.6-9 35.6s9.7 5.2 16.2 20.1c-17 15-53.4 20.3-55.6 20.6m39.3 13c11-4.5 43.3-27.2 64.7-46.6-4.5-1.9-25.9-20.1-25.9-20.1v6.5c-22.5-14.4-49.2-63.2-51-66.5 15.3 20.9 106.7 78.1 106.7 78.1s-35.6 46-94.5 48.6" class="st4" style="fill:#333"/><linearGradient id="a" x1="562.387" x2="1073.908" y1="734.122" y2="1036.711" gradientUnits="userSpaceOnUse"><stop offset="0" style="stop-color:#333;stop-opacity:0"/><stop offset=".142" style="stop-color:#3a3a3a;stop-opacity:7.079409e-002"/><stop offset=".34" style="stop-color:#4c4c4c;stop-opacity:.1701"/><stop offset=".573" style="stop-color:#6a6a6a;stop-opacity:.2864"/><stop offset=".829" style="stop-color:#939393;stop-opacity:.4144"/><stop offset="1" style="stop-color:#b3b3b3;stop-opacity:.5"/></linearGradient><path d="M567 800.6s17.3 67.3 50.9 106.1 22.2 46.6 66.2 56.9c28.5 6.7 46.8 17.7 61.7 29.3.2.1.5.3.7.4l.3.3c2.3 1.6 4.5 2.3 6.6 5.3 3.5 2 7.5 6.6 11.7 9.8 27.5 21 67.6 39.2 98.8 54.4.1 0 .2 0 .3.1 30.1 13.8 62.7 31.5 86.8 44.1 17.5 9.1 39.9 15.1 57.7 17.2 12.6 1.5 22.9 1 27.7-1.6 11.7-6.4 63.4-10.4 87.9-15.6 24.6-5.2 75.1-27.2 104.8-38.8s22-18.1 11.6-37.5-49.2-31.1-75.1-49.2-36.2-56.9-36.2-56.9-25.9-10.4-32.4-23.3c-2.7-5.4-6.5-13.5-10.8-21.6 0 0-56.4-17.8-112.1 0-55.6 17.8-68.6 54-89.3 41.1s-75.1-45.3-107.4-60.8c-32.4-15.5-29.8 49.2-62.1-16.8s-22.5-64.3-50.9-71.6c-28.3-7.5-97.4 4.1-97.4 28.7" class="st6" style="fill:url(#a)"/><path d="M775.4 688.5s22.9-16 34.5-12.5 37.5 34.5 37.5 34.5-54.3 19.5-72-22m273.1-7.8s22.4-13.8 34.9-9.5 18.1 14.7 18.1 14.7-15.1 19.8-27.2 19.4c-12-.4-25.8-24.6-25.8-24.6" class="st8" style="fill:#29abe2"/><path d="M1288.7 962.4c2.6 9 15.5 7.8 10.3 20.7-2.5 6.4-10.4 13.7-19.8 19.3-9.6 5.8-20.7 9.8-29.2 9.1-1.7-.1-3.6-.5-5.5-1.2-17-5.4-41.2-27.3-41.2-27.3s12.7 0 24.4-4.5c4.9-1.9 9.7-4.6 13.2-8.5 11.6-13-16.8-19.4-38.8-22.7-10-1.5-15.4-1.2-18.9 0-4.1 1.5-5.4 4.3-8.3 7.2-5.2 5.2-10.3-3.9-22-27.2-11.6-23.3 0-45.3 0-45.3 1.9-6.1 10.8-8.1 21.3-8.6 13.2-.7 29 .9 36.9-.5 8.2-1.5 13.4-.4 20 .3 4.9.5 10.6.9 19-.2 19.5-2.6 61.3 66.2 61.9 67.3-.2-.1-1.4-1.1-11.7-9-11.7-9-14.2 22-11.6 31.1" class="st4" style="fill:#333"/><path d="M1264.8 1031.6s-5.8 12.9 3.2 22c9.1 9.1 5.2 20.1 10.4 16.8 5.2-3.2 5.8-43.3 9.1-49.8-16.9 3.9-22.7 11-22.7 11" class="st5" style="fill:gray"/><path d="M1237.6 1084.7s33.6-1.9 16.2 7.1c-17.5 9.1-44 13.6-52.4 24.6s-7.1 31.1-25.9 31.1-88-9.7-83.5-9.7 70.5-23.9 89.9-33.6 55.7-19.5 55.7-19.5" class="st4" style="fill:#333"/><path d="M745.6 1404.1c-93.6-43.9-175.2-110.8-239.8-176-6.9-60.1-16.8-151-16.8-176.4-8.6 50.3-9.2 108.7-8 150.6-26.3-28.2-49.2-55.4-68.4-79.6 16.9-100.5 49.5-262.1 94.6-344.1 21.7-26.3 25.1-30.3 25.6-31l-27.5 16.7s-98.7-117-108.4-151.7c0-.1 0-.2-.1-.2-.2-.5-.3-1-.4-1.5v-.1c0-.3-.1-.6-.1-.9v-.2c-.2-1.2-.2-2.2 0-3.1 0 0 0 .1.1.1 4.5 7.3 9.3 14 14.4 19.9 17.7 30 53 87.4 69.2 97.8-11.8-22.1-11.8-29.1-11.8-29.1s26.9 31.5 61.6 37.8 42.6 5.5 42.6 5.5-35.5 56.8-46.6 86 12.6 30 .8 71.1-36.3 56.8-40.3 101.1c40.3-28.4 55.3-33.2 55.3-33.2s-29.2 95.5-15 165 30.8 48.2 56.8 103.4c-18.9-71.8-16.6-78.9-16.6-78.9s18.9 27.6 43.4 55.3c24.5 27.6 18.9 27.6 41.8 79 23 51.2 93.6 116.7 93.6 116.7" class="st9" style="fill:#4d4d4d"/><path d="M655.9 642.8c12.9 7.7 14.9 27.8 14.9 27.8s-14.2-12.3-35.6-18.8c-21.1-6.4-66 18.1-67.3 18.7 18.8-30.3 75.1-35.5 88-27.7m39.5-95.1s26.5 8.4 49.8 25.6c17.1 1.8 30.7-4.6 37.1 13.8 1.7 1.1 6.8 11.4 6.9 11.8.2.4-.9-.5-2.8-2.2-7.3-4.6-27.5-14.1-47-14.6-23.9-.7-49.2-9.7-49.2-9.7l33-1.3zm82.2 243.1c-36.4-9.3-53.3-60.6-54.3-63.8 1.7 2.9 24.4 41.8 54.3 44.7 31 3 77.6 0 77.6 0s-40.1 28.6-77.6 19.1"/><path d="M971.5 1126.7s-106.1-62.8-165-92c-63.8-31.6-139.1-67.6-139.1-67.6s60.4 42.6 72.3 53.5 21.3 30.6 13 72c-5.6 27.9 18.9 51 35.5 63.1 20.1-7.8 50.3-18.1 73.9-20-33.4 13.9-51.7 22.8-61.6 28.1.5.3 1 .6 1.3.8-23.8 14.1-57.8 38.7-85 72.2 40.8-27.9 88.3-44.8 112.6-52.3 5.2 2.9 11.2 5.9 18.1 8.8 30.8 13 7.1 24.9-24.3 69.9s0 95.6 0 95.6c9 20.5 98.9-55.3 98.9-55.3l-27.2-156z" class="st10" style="opacity:.4"/><path d="M1008.9 567.3c-27.6-17.4-33.2-37.1-43.4-79.7 8.7 12.6 32.4 16.6 32.4 16.6s.8-6.3 9.5-23.7-6.3-57.6-5.5-85.3c.8-27.6 18.1-41.9 33.9-63.9 13.5-18.9 43.6-99.2 52.2-122.4 1.5-4 2.3-6.3 2.3-6.3l.7 1.1.4.5c-3.3 12-6.9 23.2-10.6 32.4-4.1 10.3-8.8 21.2-13.4 31.8-19 44.3-36.9 86.2-33.4 116.7.6 4.8 1.1 10.4 1.5 16.7 2.1 29.2 2.5 70.8-1.3 92.3-3.3 18.6-3.6 33.8-3.1 44.1-10.2-5.7-26.4-15.6-34.9-24.9 19.4 36.2 44.3 56.7 44.3 56.7 7.3 12.5 21.6 33.9 41.1 50.7 22.8 19.5 22.2 22.5 21.5 26.9 0 0-5.6-1.7-13-1.7-1 0-30.2-31.1-41.8-47.4-11.6-16.4-11.7-13.9-39.4-31.2M1210.7 865l-1.1.4-.9.3s-.4-.2-1.1-.7c-5-3-25.7-15.4-36-22.9-11.8-8.6-30-37.2-30-37.2l-.8 8.7c-18.1-19.8-35.5-26.9-65.8-40.3-30.2-13.4-51.8-67.9-51.8-67.9l-2.4 16.6c-4-17.4-6.3-22.1-4.7-46.5s21.6-68.9 21.6-68.9-11.7 77.6 0 93.2c9.9 13.3 50.9 51.5 62.6 62.3l.1.1c.8.9 1.8 1.7 2.7 2.5l.1.1c.1 0 .1.1.1.1 16.1 12.6 28.8 23.2 38.9 32.1 26.8 23.5 35.5 35.3 41.3 43.3 4.3 5.8 8.7 11.8 16.5 17.9 3.6 2.6 7.1 4.8 10.7 6.8m78 97.4c2.6 9 15.5 7.8 10.3 20.7-2.5 6.4-10.4 13.7-19.8 19.3 11-12.1 10.5-25.1 8.1-27-2.9-2.4-16-27.2-12.2-40.3 3.7-13 11.6-10.7 12.2-18.9.6-8.3-12.4-14.2-24.5-20.1-10.3-5-27.1-18.8-31.8-22.7 4.9.5 10.6.9 19-.2 19.5-2.6 61.3 66.2 61.9 67.3-.2-.1-1.4-1.1-11.7-9-11.6-9.2-14.1 21.8-11.5 30.9M958.8 600.1c-5.2-19.4-25.9-32.3-40.1-38.7-14.2-6.5-37.5-24.4-37.5-24.4s-10.4-17.8-25.9-37.2q-1.8-2.25-4.5-4.5c-.1 0-.1-.1-.2-.1-1.9-1.5-3.9-3-6-4.6-17.7-12.2-48.3-24.8-64.8-31.2-4.6.1-9.1.1-13.6.2-1.1 0-2.1.1-3.2.1-.9 0-1.9 0-2.8.1-5.3.1-10.4.3-15.4.5-.8 0-1.5.1-2.2.1-1.3 0-2.6.1-3.9.1-2.2.1-4.3.2-6.4.3 0 0-2.7.8-7.1 2.5-12.9 4.7-41 16.1-64.1 33.4v-.2c-14 19-32.1 49.3-33.3 51.2 1.5-2 25.4-34.1 42.9-36.9 18.1-3 21.5-23.1 42.3-29 20.6-5.9 59.4-10.7 59.9-10.8 13.6 3.5 27 8.3 38.4 14.4 32.3 17.4 41.9 42.7 53 62.6 11 19.9 20.4 10.2 43.9 14.9s50.5 50.7 50.5 50.7l7.9 11.1c-3.5-10-6.3-18.7-7.8-24.6m224.3 347.4c-4.1 1.5-5.4 4.3-8.3 7.2-5.2 5.2-10.3-3.9-22-27.2-11.6-23.3 0-45.3 0-45.3 1.9-6.1 10.8-8.1 21.3-8.6-3.5 4.1-13.5 17.4-10.5 33.2 3.6 18.9 5.5 27.6 11.7 31 6.1 3.3 7.8 9.7 7.8 9.7m61.4 62.8c-17-5.4-41.2-27.3-41.2-27.3s12.7 0 24.4-4.5c3.9 7.6 9.6 18.4 16.8 31.8m-99.8-15.8c2.7-1.4 13 4.7 8.9 7.9s-3.6 3.2-8.9 3.2-8.3-6.8 0-11.1m14.2 21.3c2.7-1.4 13 4.7 8.9 7.9s-3.6 3.2-8.9 3.2-8.3-6.8 0-11.1m16.6 30.8c2.7-1.4 13 4.7 8.9 7.9s-3.6 3.2-8.9 3.2-8.3-6.8 0-11.1m-47.4 23.7c2.7-1.4 13 4.7 8.9 7.9s-3.6 3.2-8.9 3.2-8.2-6.8 0-11.1m11.9-23.7c2.7-1.4 13 4.7 8.9 7.9s-3.6 3.2-8.9 3.2-8.3-6.8 0-11.1m-49.8 23.7c2.7-1.4 13 4.7 8.9 7.9s-3.6 3.2-8.9 3.2-8.2-6.8 0-11.1m14.3-42.7c2.7-1.4 13 4.7 8.9 7.9s-3.6 3.2-8.9 3.2-8.3-6.8 0-11.1m-47.4 11.9c2.7-1.4 13 4.7 8.9 7.9s-3.6 3.2-8.9 3.2-8.3-6.8 0-11.1m71-23.7c2.7-1.4 13 4.7 8.9 7.9s-3.6 3.2-8.9 3.2-8.2-6.8 0-11.1m-63.9-11.8c2.7-1.4 13 4.7 8.9 7.9s-3.6 3.2-8.9 3.2-8.3-6.9 0-11.1m-42.6-19c2.7-1.4 13 4.7 8.9 7.9s-3.6 3.2-8.9 3.2-8.3-6.8 0-11.1m75.8 4.8c2.7-1.4 13 4.7 8.9 7.9s-3.6 3.2-8.9 3.2c-5.4 0-8.3-6.9 0-11.1" class="st9" style="fill:#4d4d4d"/><path d="M1077.2 1172.3s-41.4 0-60.8-4.4-71.5-13.1-71.5-13.1 89-5.7 114.1-2.7 59.7 8.2 59.7 8.2zM411.6 366.9s-8 71.9-9.3 87.7-4.9 37.1-10.2 55c3.5-52.3 4.1-58.6 0-76.2s-4.7-43.3-4.7-43.3z" class="st4" style="fill:#333"/></svg><svg width="61.74" height="25.02" x="234.91" y="248" style="overflow:visible" viewBox="-0.68 8.64 61.74 25.02"><path fill="gray" d="M22.14 33.66h-7.06l-1.11-5.11H7.34l-1.11 5.11H-.68L6.73 8.64h7.99zM10.66 13.39 8.39 23.8h4.53zm31.86-4.75L36 20.2l7.09 13.46h-7.23l-3.89-9.04-3.71 9.04H21.2l6.84-13.28-6.33-11.74h7.16l3.17 7.6 3.46-7.6zm2.26 0h6.66v19.84h9.62l-.72 5.18H44.78z"/></svg></svg>