<svg xmlns="http://www.w3.org/2000/svg" width="18" height="18" fill="none" viewBox="0 0 18 18"><path stroke="#fff" stroke-linecap="round" stroke-width="1.5" d="M3.599 17.1c2.924-1.35 4.386-2.025 5.848-2.025m5.848 2.025c-2.924-1.35-4.386-2.025-5.848-2.025m0 0V10.35m0 0L9 9.368m.447.982v-1.8l.45-.9M9 9.368s-4.492.62-6.3-.818C1.161 7.327.9 4.05.9 4.05s4.095-.494 5.89 1.268C8.027 6.53 9 9.368 9 9.368Zm.897-1.718s.486-3.947 2.25-5.4C13.691.976 17.094.9 17.094.9s.165 3.841-1.35 5.4C14.11 7.981 9.896 7.65 9.896 7.65Z"/></svg>