<svg xmlns="http://www.w3.org/2000/svg" width="21" height="20" fill="none" viewBox="0 0 21 20"><path fill="#24272A" fill-rule="evenodd" d="M5.777 6.31c-.83.076-1.812.389-2.817 1.2a1.23 1.23 0 0 0-.1 1.829l3.715 3.715-3.281 3.28a.616.616 0 0 0 .87.87l3.28-3.281 3.712 3.716a1.23 1.23 0 0 0 .871.361h.087a1.23 1.23 0 0 0 .898-.488c.774-1.03 1.114-1.96 1.213-2.754zm8.337 6.498 4.026-4.04a1.23 1.23 0 0 0 0-1.74l-4.67-4.667a1.23 1.23 0 0 0-1.74 0L7.704 6.399z" clip-rule="evenodd"/><path stroke="#24272A" stroke-linecap="round" stroke-width="1.3" d="m4.523 2.38 12.818 12.818"/></svg>