<svg xmlns="http://www.w3.org/2000/svg" width="30" height="30" fill="none" viewBox="0 0 30 30"><path fill="#D73847" d="M25.823 4.52A4.5 4.5 0 0 0 22.429 3c-1.28 0-2.446.526-3.28 1.383a4.5 4.5 0 0 0-1.063 1.748 4.6 4.6 0 0 0-.229 1.44c0 .858.24 1.669.663 2.355.229.388.526.743.869 1.04a4.48 4.48 0 0 0 3.04 1.177c.502 0 .982-.08 1.428-.24a4.46 4.46 0 0 0 2.48-1.977c.24-.389.423-.835.526-1.292Q27 8.12 27 7.571c0-1.165-.446-2.24-1.177-3.051M24.13 8.406h-.845c-.486-.006-.389 0-.857 0-.469 0-.229-.006-.858 0h-.845a.863.863 0 0 1-.857-.857c0-.469.388-.858.857-.858h3.405c.469 0 .858.389.858.858a.856.856 0 0 1-.858.857"/><path fill="#D73847" d="M25.857 15.571c0-1.497-.286-2.937-.823-4.251a4.4 4.4 0 0 1-1.177.583c-.126.046-.251.08-.388.114a9.69 9.69 0 0 1-2.137 10.377 5.3 5.3 0 0 0-1.258-1.143c-3.097-2.08-8.171-2.08-11.291 0a5.5 5.5 0 0 0-1.257 1.143 9.7 9.7 0 0 1-2.812-6.823c0-5.36 4.355-9.714 9.715-9.714 1.245 0 2.445.24 3.542.674a6 6 0 0 1 .115-.4 4 4 0 0 1 .594-1.165 11.2 11.2 0 0 0-4.251-.823C8.13 4.143 3 9.274 3 15.57c0 3.315 1.429 6.298 3.691 8.389 0 .011 0 .011-.011.023.114.114.251.206.366.308.068.058.125.115.194.16.206.172.434.332.651.492l.229.16q.326.223.686.411c.08.046.171.103.251.149q.343.189.72.343c.092.045.183.091.274.125q.377.155.755.275c.091.034.183.068.274.091.274.08.549.149.823.217.08.023.16.046.251.057.32.069.64.115.972.149.045 0 .091.011.137.023.388.034.777.057 1.166.057s.777-.023 1.154-.057c.046 0 .091-.012.137-.023.331-.034.651-.08.971-.149.08-.011.16-.045.252-.057.274-.068.56-.125.823-.217.091-.034.183-.068.274-.091.251-.092.514-.172.754-.275.092-.034.183-.08.275-.125q.36-.154.72-.343c.091-.046.171-.103.251-.149.229-.137.457-.263.686-.411.08-.046.148-.103.228-.16.229-.16.446-.32.652-.492.068-.057.125-.114.194-.16a10 10 0 0 0 .366-.308c0-.012 0-.012-.012-.023 2.275-2.091 3.703-5.074 3.703-8.389"/><path fill="#D73847" d="M14.429 9.777a4.287 4.287 0 0 0-4.286 4.286c0 2.32 1.817 4.206 4.228 4.274h.206a4.28 4.28 0 0 0 4.137-4.274 4.287 4.287 0 0 0-4.285-4.286"/></svg>