<svg xmlns="http://www.w3.org/2000/svg" width="24" height="24" fill="none" viewBox="0 0 24 24"><path fill="#24272A" fill-rule="evenodd" d="M22 5.81a3.81 3.81 0 1 1-7.62 0 3.81 3.81 0 0 1 7.62 0m-5.138-.392a.24.24 0 0 1 0 .336.979.979 0 1 0 1.384 0 .238.238 0 0 1 .337-.337 1.455 1.455 0 1 1-2.057 0 .24.24 0 0 1 .336 0m1.198-.939a1.032 1.032 0 1 1 1.46 1.461.238.238 0 0 0 .337.336 1.509 1.509 0 1 0-2.134 0 .238.238 0 1 0 .337-.336 1.034 1.034 0 0 1 0-1.46" clip-rule="evenodd"/><path fill="#24272A" d="M21.048 12.476a9.4 9.4 0 0 0-.686-3.543 3.6 3.6 0 0 1-.981.486 3 3 0 0 1-.324.095 8.08 8.08 0 0 1-1.78 8.648 4.4 4.4 0 0 0-1.048-.953c-2.581-1.733-6.81-1.733-9.41 0-.419.277-.762.6-1.048.953a8.08 8.08 0 0 1-2.342-5.686c0-4.466 3.628-8.095 8.095-8.095 1.038 0 2.038.2 2.952.562.029-.114.057-.22.095-.333.115-.353.277-.677.496-.972a9.4 9.4 0 0 0-3.543-.686C6.276 2.952 2 7.23 2 12.476c0 2.762 1.19 5.248 3.076 6.99 0 .01 0 .01-.01.02.096.095.21.171.305.257.058.048.105.095.162.133.172.143.362.276.543.41.067.047.124.085.19.133q.272.186.572.343c.067.038.143.086.21.124q.285.157.6.285c.076.038.152.077.228.105q.315.129.629.229c.076.028.152.057.228.076.229.067.457.124.686.18.067.02.133.039.21.049.266.057.533.095.81.123.037 0 .075.01.113.02.324.028.648.047.972.047s.647-.019.962-.048c.038 0 .076-.01.114-.019.276-.028.543-.066.81-.123.066-.01.133-.039.209-.048.229-.057.467-.105.686-.181q.114-.045.228-.076c.21-.076.429-.143.629-.229.076-.028.152-.067.228-.105q.3-.127.6-.285c.077-.038.143-.086.21-.124.19-.114.381-.22.571-.343.067-.038.124-.086.19-.133.191-.134.372-.267.544-.41.057-.047.105-.095.162-.133.104-.086.21-.172.304-.257 0-.01 0-.01-.01-.02 1.896-1.742 3.087-4.228 3.087-6.99"/><path fill="#24272A" d="M11.524 7.648a3.573 3.573 0 0 0-3.572 3.571c0 1.934 1.515 3.505 3.524 3.562h.172a3.565 3.565 0 0 0 3.447-3.562c0-1.971-1.6-3.571-3.571-3.571"/></svg>