<svg xmlns="http://www.w3.org/2000/svg" fill="none" viewBox="0 0 150 56"><path fill="currentColor" d="M60 13h6v24h6V7h-6c-3.3 0-6 2.7-6 6m18 24h6V25c0-3.3-2.7-6-6-6zm12-18v18h6V25h6v6c0 3.3 2.7 6 6 6V25c0-3.3-2.7-6-6-6zm54 0h-6v-6c0-3.3-2.7-6-6-6v24h-12v-6h6v-6h-6c-3.3 0-6 2.7-6 6v6c0 3.3 2.7 6 6 6h18V25h6v6c0 3.3 2.7 6 6 6V25c0-3.3-2.7-6-6-6m-66-6h6c0-3.3-2.7-6-6-6z"/><path fill="#2F7AEA" fill-rule="evenodd" d="M69.354 43v3.878h-.55l-2.159-2.687v2.687H66V43h.55l2.16 2.698V43zm12.205 3.878h-2.328V43h2.272v.637h-1.582v.964h1.414v.637h-1.413v1.003h1.637zm9.877-3.24h1.274v3.24h.69v-3.24h1.273V43h-3.237zM109.357 43h.662l-1.122 3.878h-.645l-.948-2.803-.931 2.803h-.65L104.55 43h.774l.791 2.764.875-2.764h.685l.897 2.77zm11.112.576q-.573.576-.572 1.424 0 .892.577 1.446.578.554 1.464.554.88 0 1.464-.565t.584-1.435q0-.886-.584-1.446-.578-.554-1.464-.554t-1.469.576m.533 2.4q-.376-.389-.376-.976 0-.599.37-.98.377-.383.942-.383.556 0 .937.382.382.389.382.981 0 .588-.359.975-.354.388-.96.388-.561 0-.936-.388m13.551-.538v1.451h-.69V43.01q.291 0 .634-.006.342-.005.561-.005 1.424 0 1.424 1.197 0 .443-.23.731-.23.277-.527.377l1.229 1.584h-.836l-1.083-1.451zm.471-1.8q-.029 0-.09.005-.061 0-.174.005h-.207V44.8h.448q.332 0 .539-.161a.52.52 0 0 0 .213-.438q0-.565-.729-.565m11.807 3.24h.69v-2l1.604 2H150l-1.716-2.072L149.899 43h-.83l-1.548 1.84V43h-.69z" clip-rule="evenodd"/><path fill="#fff" d="m13.927 30.553 1.4-10.544-12.163-8.444 11.113 3.763 2.625-4.025 9.58-5.95L47.615 16.99l1.094 17.763-9.406 13.08-7.438 1.138 3.85-7.043v-6.782l-2.8-5.294-2.844-1.88-4.375 4.505v4.77l-3.412 3.193-4.331.525-1.925 1.094-3.15-1.006-1.313-4.725 2.363-3.326z"/><path fill="#94A6C3" d="M33.35 11.478c-2.318-.482-4.855-.35-4.855-.35s-.832 3.85-5.994 4.856c.044 0 6.825 2.319 10.85-4.506M35.45 46.39c2.8-2.187 4.9-5.206 5.863-8.618.044-.132.438-.35.7-.526.438-.262.875-.48.963-.83a18 18 0 0 0 .262-3.107c0-.394-.394-.787-.787-1.181-.306-.263-.613-.569-.613-.788-.437-3.981-2.275-7.7-5.206-10.412l-.306.306c2.843 2.669 4.681 6.3 5.075 10.15.043.35.393.7.743 1.05.307.263.657.656.657.831q0 1.51-.263 3.019c-.043.175-.437.35-.743.525-.438.219-.832.438-.92.788-1.05 3.718-3.456 6.956-6.65 9.056.57-1.225 2.363-5.206 3.326-7.219l-.175-6.475-5.556-5.381-3.15.437-3.457 5.6s1.619 2.057-.656 4.463c-2.231 2.362-3.981 2.887-3.981 2.887l-1.619-.875c.481-.612 1.444-1.531 2.188-2.144 1.268-1.05 2.537-1.137 2.537-2.274.044-2.363-2.494-1.707-2.494-1.707l-.918.875-.394 3.238-1.925 2.406-.219-.044-3.15-.7s1.925-1.006 2.231-2.144c.306-1.093-.612-4.724-.656-4.943.044.044.919.787 1.313 2.012.7-1.925 1.618-3.762 1.88-3.937.263-.175 3.807-2.056 3.807-2.056l-1.181 3.106.875-.481 2.1-5.163s2.056-1.006 3.587-1.006c2.756-.044 6.825-3.413 4.988-9.45.525.218 9.625 4.768 11.2 13.694 1.181 6.868-2.713 13.3-9.275 17.018"/><path fill="#1B314F" d="M25.039 12.44c1.006-1.18.612-2.93.612-2.93l-2.93 4.33c-.044 0 1.05.044 2.318-1.4m-9.844 23.67.35-1.75s-1.444 2.537-1.575 2.887c-.131.394.088 1.094.656 1.05.57-.044 1.27-.875 1.27-1.488 0-.787-.7-.7-.7-.7"/><path fill="#1B314F" d="M41.183 8.284s2.187.088 4.462.35C40.526 4.61 35.67 3.428 31.733 3.428c-5.425 0-9.1 2.231-9.319 2.363l1.706-2.713s-6.825-.656-9.231 6.563c-.612-1.532-1.181-3.763-1.181-3.763s-3.544 3.106-1.882 8.269C7.759 12.659 1.94 10.603 1.72 10.559c-.306-.043-.393.088-.393.088s-.088.131.175.35c.48.393 9.668 7.175 11.68 8.487-.437 1.575-.437 2.319 0 3.063.613 1.006.657 1.531.57 2.275s-.876 7.175-1.05 7.962c-.175.788-2.013 3.588-1.925 4.419s1.225 4.375 2.23 4.769c.745.262 2.582.831 3.807.831.438 0 .831-.087 1.006-.262.744-.657.963-.788 1.488-.788h.131c.219 0 .481.044.788.044.7 0 1.618-.131 2.274-.744.963-.962 2.625-2.275 3.15-2.887a4.07 4.07 0 0 0 .832-3.107c-.131-1.05.437-1.968 1.093-2.887a469 469 0 0 1 2.363-3.063c3.019 2.275 4.9 5.731 4.9 9.581 0 6.826-5.95 12.338-13.3 12.338a14 14 0 0 1-3.325-.394c3.369 1.181 6.213 1.575 8.531 1.575 4.944 0 7.569-1.794 7.569-1.794s-.919 1.182-2.406 2.538h.043c8.182-1.138 12.163-7.875 12.163-7.875s-.306 2.188-.7 3.675c10.894-8.181 9.056-18.419 9.012-18.769.088.131 1.182 1.444 1.75 2.144 1.75-18.025-12.993-23.844-12.993-23.844M24.427 37.072c-.175.218-.92.875-1.444 1.356-.525.481-1.094.963-1.532 1.4q-.262.262-1.05.262H19.09c.656-.875 2.581-2.887 3.238-3.325.787-.525 1.18-1.05.7-1.968-.482-.919-1.75-.7-1.75-.7s.743-.306 1.4-.306c-.832-.22-1.882 0-2.363.48-.525.482-.437 2.188-.656 3.282-.219 1.138-.963 1.706-2.1 2.756-.613.569-1.05.744-1.4.744a15 15 0 0 1-2.232-.569c-.437-.569-1.093-2.45-1.268-3.237.131-.438.656-1.356.918-1.882.525-1.006.832-1.575.92-2.1.174-.743.743-5.337.962-7.262.568.744 1.356 1.969 1.181 2.756 1.269-1.794.35-3.544-.087-4.244-.394-.7-.92-2.1-.482-3.587s2.013-5.6 2.013-5.6.525.919 1.269.744 6.737-9.188 6.737-9.188 1.619 3.544-.087 6.125c-1.75 2.582-3.457 3.063-3.457 3.063s2.406.437 4.638-1.181c.919 2.143 1.794 4.374 1.837 4.68-.131.307-1.881 4.507-2.056 4.77-.087.087-.7.262-1.137.35-.744.218-1.182.35-1.357.48-.306.263-1.706 4.113-2.362 5.995-.788.218-1.575.656-2.144 1.53.306-.218 1.269-.35 1.969-.437.612-.044 2.494.963 2.975 2.844v.087c.087.7-.132 1.357-.482 1.882m-4.113.525c.394-.569.35-1.532.394-1.838s.131-.875.481-.962c.35-.088 1.181.044 1.181.656 0 .569-.612.7-1.05 1.094-.306.306-.919.962-1.006 1.05M37.77 29.24c.438-2.232.481-4.157.35-5.732 1.707 2.275 2.757 5.032 3.063 7.875.044.35.394.7.743 1.05.307.263.657.613.657.832q0 1.509-.263 3.018c-.044.132-.437.35-.743.525-.438.219-.832.438-.92.788a16.3 16.3 0 0 1-5.774 8.444c4.069-4.244 6.037-11.244 2.887-16.8m-2.756 17.193c2.844-2.187 5.031-5.25 5.994-8.706.043-.131.437-.35.7-.525.437-.219.875-.481.962-.831.175-1.007.263-2.056.263-3.106 0-.394-.394-.788-.788-1.182-.219-.262-.569-.569-.569-.787a17.1 17.1 0 0 0-3.587-8.707c-.875-5.25-4.375-6.868-4.462-6.912.087.131 2.362 3.412.787 7.262-1.619 3.894-5.775 3.282-6.125 3.325-.35 0-1.706 1.75-3.413 4.988-.218-.087-1.137-.306-2.187-.131.788-2.188 1.969-5.294 2.188-5.556.087-.088.743-.263 1.18-.394.832-.219 1.226-.35 1.357-.525.087-.131.525-1.138.962-2.188.394 0 1.4-.087 1.488-.131.088-.087.919-2.231.919-2.494 0-.218-1.706-4.462-2.363-6.081.306-.35.613-.787.919-1.269 8.969.963 15.969 8.575 15.969 17.807 0 7.087-4.157 13.256-10.194 16.143"/><path fill="#1B314F" d="M23.377 22.81c.83-.963.393-2.757-1.138-3.063.394-.919.962-2.756.962-2.756s-4.462 7-4.856 7.13c-.393.132-.787-1.4-.787-1.4-.831 3.195 1.4 3.632 1.662 2.626 1.225-.306 3.325-1.619 4.157-2.538"/><path fill="#FFD923" d="m19.57 24.516 2.275-3.894s1.313.656.657 1.706c-.832 1.225-2.932 2.188-2.932 2.188"/><path fill="#D82122" d="M47.7 42.54c-.656.876-1.4 1.794-2.274 2.67 5.643-10.85.262-20.782.043-21.176.394.394.788.832 1.138 1.225 4.331 4.813 4.856 12.032 1.094 17.282m5.249-13.957c-1.968-5.293-4.768-9.8-10.937-13.868-5.95-3.938-12.337-3.632-12.687-3.588h-.088a3.6 3.6 0 0 1 .656-.175c1.357-.437 3.107-.787 4.857-1.006 4.637-.656 9.318.919 12.512 4.287l.088.088c3.63 3.85 5.512 8.662 5.6 14.262M40.613 6.928c-6.519-1.225-10.719-.612-13.737.525-.088-.35-.394-1.05-.657-1.619-.918 1.094-1.88 2.407-2.493 3.238-1.663 1.137-2.363 2.231-2.363 2.231.963-3.281 3.763-5.731 7.175-6.344a17.6 17.6 0 0 1 3.15-.262c3.019.044 6.038.787 8.925 2.231m-24.106 8.4c-5.119-.175-3.413-6.125-3.325-6.475 0 .044.35 4.681 3.325 6.475M21.538 4.61c-3.937 2.362-3.15 8.006-3.15 8.006-3.762-5.732 2.844-7.875 3.15-8.007"/><path fill="#fff" d="M15.065 16.903c.262.219.525.612.219 1.181-.175.306-.438.263-.832.088-.525-.263-3.675-2.1-6.518-3.982 3.237 1.138 6.518 2.363 7.043 2.625z"/></svg>