<svg xmlns="http://www.w3.org/2000/svg" width="135" height="36" fill="none" viewBox="0 0 135 36"><g fill="#F3BA2F" clip-path="url(#a)"><path d="M38.432 4.328h6.16c1.55 0 2.733.405 3.427 1.133a2.91 2.91 0 0 1 1.06 2.265c0 .323 0 .728-.122 1.052a4.3 4.3 0 0 1-.938 1.456 1.8 1.8 0 0 1-.612.404c.734.203 1.346.607 1.877 1.133.408.526.612 1.132.612 2.063 0 .526-.123 1.132-.327 1.537-.204.404-.612.809-1.06 1.132-.53.324-1.061.526-1.55.729-.613.202-1.347.202-2.081.202h-6.324V4.328zm5.63 5.42c.53 0 1.06-.121 1.55-.323.408-.202.612-.607.612-1.052a1.34 1.34 0 0 0-.53-1.052c-.408-.323-.939-.404-1.47-.323h-2.937v2.79h2.734v-.04zm.734 5.259c.53 0 1.06-.122 1.55-.324.408-.202.612-.607.53-1.132 0-.405-.203-.81-.53-1.052-.326-.202-.938-.405-1.672-.405h-3.427v2.913zM56.505 4.328h-2.937v13.268h2.937zm4.488 0h2.692l6.283 8.211V4.33h2.938v13.267h-2.53l-6.568-8.373v8.373h-2.815zm20.766-.081h2.733l5.753 13.348h-3.02l-1.264-2.993h-5.63l-1.265 2.993h-3.019zm3.141 7.847-1.754-4.328-1.754 4.328zm8.446-7.766h2.733l6.242 8.211V4.33h2.937v13.267h-2.529l-6.446-8.373v8.373h-2.937zm22.561 13.47c-.939 0-1.877-.202-2.734-.526a7 7 0 0 1-3.672-3.64 7.3 7.3 0 0 1-.53-2.71c0-1.74.734-3.52 1.999-4.855.612-.606 1.346-1.132 2.203-1.456.938-.404 1.877-.526 2.815-.526.531 0 1.143 0 1.673.122.53.121.938.202 1.346.404.408.203.816.405 1.143.607a9 9 0 0 1 1.06.809l-1.754 2.184a30 30 0 0 0-1.55-1.132c-.531-.324-1.143-.405-1.755-.405-.53 0-1.06.122-1.55.324-.53.202-.938.526-1.265.93-.326.405-.612.81-.816 1.335-.204.526-.326 1.052-.326 1.537 0 .526.122 1.133.326 1.659.204.525.408.93.816 1.334a3.8 3.8 0 0 0 2.815 1.254 5.2 5.2 0 0 0 1.999-.404c.531-.324 1.143-.728 1.551-1.133l1.876 1.86-1.06 1.053c-.408.323-.816.525-1.265.728a7 7 0 0 1-1.469.526c-.734.12-1.387.12-1.876.12m8.975-13.469h9.996v2.589h-7.181v2.71h6.365v2.589h-6.365v2.79H135v2.59h-10.118zM42.185 30.62c-.734 0-1.469-.121-2.08-.405-.613-.202-1.265-.606-1.877-1.132l1.06-1.133c.408.405.816.607 1.347.93.53.203 1.06.324 1.55.324.408 0 .816-.121 1.265-.323.326-.203.408-.526.408-.81 0-.12 0-.323-.123-.404-.122-.121-.204-.324-.326-.404-.204-.122-.408-.203-.612-.324-.326-.121-.734-.202-1.06-.323-.409-.122-.94-.203-1.347-.405-.327-.121-.734-.324-.938-.526a4 4 0 0 1-.612-.728c-.205-.405-.205-.809-.205-1.133 0-.404.123-.728.205-1.132.122-.324.407-.607.611-.81.327-.201.612-.404 1.061-.525a4.4 4.4 0 0 1 1.265-.202 6.1 6.1 0 0 1 1.877.323c.53.203 1.06.526 1.55.81l-.816 1.253c-.408-.323-.816-.526-1.265-.728-.408-.202-.816-.202-1.264-.202-.408 0-.816.121-1.143.324-.204.202-.408.525-.408.809 0 .202 0 .323.123.525.122.122.204.324.326.405.204.121.408.202.734.323.327.122.612.203 1.143.324.408.121.816.202 1.346.405.326.12.612.323.938.525.204.203.408.526.53.729.123.323.205.606.205 1.051s-.123.81-.204 1.133a5 5 0 0 1-.735.93c-.326.202-.612.405-1.06.526-.53-.08-1.02 0-1.47 0m5.223-9.384h1.795l2.815 4.328 2.897-4.328h1.795v9.303h-1.673v-6.755L52.1 28.153h-.082l-2.937-4.369v6.755h-1.673zm14.932-.121h1.55l4.08 9.303h-1.754l-.939-2.265h-4.365l-.938 2.265H58.3zm2.407 5.703-1.673-3.721-1.55 3.721zm4.896-5.582h4.202c.53 0 1.06.121 1.55.202.408.121.816.405 1.143.728.204.202.408.526.612.93.122.324.204.729.204 1.133 0 .324-.123.728-.204 1.052-.123.323-.327.526-.408.809-.204.202-.408.404-.735.607a3.1 3.1 0 0 1-.938.404l2.489 3.52h-2l-2.284-3.196h-2.08v3.195h-1.674zm4.08 4.53c.53 0 1.06-.121 1.346-.404.326-.324.53-.728.53-1.133 0-.404-.204-.809-.53-1.133-.408-.323-.938-.404-1.469-.404h-2.407v3.115h2.53zm7.915-3.114h-3.02v-1.416h7.63v1.416h-3.02v7.887h-1.672zm14.728 7.968a4.5 4.5 0 0 1-1.877-.404c-1.143-.526-2.08-1.335-2.489-2.468-.204-.606-.408-1.254-.326-1.86 0-.607.122-1.254.326-1.861.408-1.133 1.346-2.063 2.489-2.589.612-.202 1.264-.404 1.999-.404.408 0 .816 0 1.142.121.327.121.612.202.939.324.326.121.53.323.816.404.204.202.53.405.734.607l-1.06 1.254a4.5 4.5 0 0 0-1.143-.81 3.4 3.4 0 0 0-1.469-.323c-.408 0-.816.122-1.265.203-.408.202-.734.404-1.06.728s-.53.606-.612 1.051a4.3 4.3 0 0 0-.204 1.254c0 .405.122.81.204 1.254.122.405.326.728.612 1.052.326.323.612.526 1.06.728.408.202.816.323 1.265.202.53 0 1.06-.121 1.469-.323.408-.203.816-.526 1.264-.93l1.061 1.05-.734.729c-.326.202-.53.404-.816.526-.326.121-.612.323-1.06.323-.409.162-.858.162-1.265.162m5.548-9.384h1.55v3.802h4.488v-3.802h1.673v9.303h-1.673v-3.923h-4.488v3.923h-1.55zm13.463-.121h1.551l4.079 9.303h-1.754l-.938-2.265h-4.366l-.938 2.265h-1.673zm2.285 5.703-1.55-3.721-1.551 3.721zm6.691-5.582h-1.673v9.303h1.673zm2.488 0h1.469l5.018 6.39v-6.39H135v9.303h-1.346l-5.141-6.634v6.634h-1.673zM19.012 29.892v4.045L15.462 36l-3.427-2.063v-4.045l3.427 2.063zM0 15.937 3.427 18v6.917l5.956 3.56v4.044L0 27.021zm30.884 0V27.02l-9.465 5.46v-4.044l5.915-3.479V18zm-9.465-5.501 3.55 2.063v4.045l-5.957 3.519V27.1l-3.427 2.063-3.468-2.063v-7.038l-6.16-3.52V12.54l3.549-2.063 5.956 3.52zm-15.463 9.02 3.427 2.063v4.045l-3.427-2.063zm19.012 0v4.045l-3.427 2.063v-4.045zM3.427 6.916l3.55 2.064-3.55 2.063v4.045L0 13.025V8.98zm24.03 0 3.55 2.064v4.045l-3.55 2.063v-4.045L24.03 8.98zm-11.995 0 3.55 2.064-3.55 2.063-3.427-2.063zm0-6.916 9.506 5.501-3.427 2.063-5.997-3.52-6.038 3.52-3.427-2.063z"/></g><defs><clipPath id="a"><path fill="#fff" d="M0 0h135v36H0z"/></clipPath></defs></svg>