<svg xmlns="http://www.w3.org/2000/svg" width="519.234" height="121.333" viewBox="0 0 519.234 121.333"><path fill="#12161c" d="M25.222 57.766a5.144 5.144 0 0 1 5.168-5.143l8.568.028a5.15 5.15 0 0 1 5.151 5.151v32.4c.965-.286 2.2-.591 3.559-.911a4.29 4.29 0 0 0 3.309-4.177V44.927a5.15 5.15 0 0 1 5.151-5.152h8.594a5.15 5.15 0 0 1 5.151 5.152v37.3s2.15-.87 4.243-1.754a4.3 4.3 0 0 0 2.625-3.957V32.049a5.15 5.15 0 0 1 5.15-5.151h8.585a5.15 5.15 0 0 1 5.146 5.151v36.617c7.443-5.394 14.986-11.882 20.972-19.683a8.65 8.65 0 0 0 1.316-8.072A60.636 60.636 0 1 0 8.055 91.019a7.67 7.67 0 0 0 7.316 3.79c1.624-.143 3.646-.345 6.05-.627a4.29 4.29 0 0 0 3.805-4.258V57.766" data-name="Path 1"/><path fill="#f0b90b" d="M25.039 109.727a60.656 60.656 0 0 0 96.339-49.061c0-1.4-.065-2.778-.158-4.152-22.163 33.055-63.085 48.508-96.181 53.213" data-name="Path 2"/><g fill="#12161c"><path d="M155.064 101.406h-8.49l-1.5 4.26h-4.47l7.8-20.94h4.83l7.77 20.94h-4.47Zm-1.14-3.21-3.12-8.94-3.12 8.94Zm28.83-9.36a7.14 7.14 0 0 1 3.78 1.02 6.9 6.9 0 0 1 2.625 2.955 10.25 10.25 0 0 1 .945 4.545 10.25 10.25 0 0 1-.945 4.545 6.9 6.9 0 0 1-2.625 2.955 7.14 7.14 0 0 1-3.78 1.02 6.25 6.25 0 0 1-3.585-1.01 5.5 5.5 0 0 1-2.115-2.68v11.4h-4.23v-24.54h4.23v3.45a5.4 5.4 0 0 1 2.115-2.67 6.3 6.3 0 0 1 3.585-.99m-1.32 3.69a4.18 4.18 0 0 0-3.165 1.3 4.9 4.9 0 0 0-1.245 3.53 4.85 4.85 0 0 0 1.245 3.5 4.18 4.18 0 0 0 3.165 1.3 4.16 4.16 0 0 0 3.18-1.275 4.94 4.94 0 0 0 1.2-3.525 5 5 0 0 0-1.2-3.54 4.14 4.14 0 0 0-3.18-1.29m17.4-.3a6.95 6.95 0 0 1 2.46-2.505 6.54 6.54 0 0 1 3.42-.915v4.53h-1.23q-4.65 0-4.65 4.32v8.01h-4.23v-16.62h4.23Zm17.4-3.39a9.2 9.2 0 0 1 4.365 1.02 7.47 7.47 0 0 1 3.045 2.955 9 9 0 0 1 1.11 4.545 8.9 8.9 0 0 1-1.11 4.53 7.6 7.6 0 0 1-3.045 2.955 9.1 9.1 0 0 1-4.365 1.035 9.1 9.1 0 0 1-4.365-1.035 7.6 7.6 0 0 1-3.045-2.955 8.9 8.9 0 0 1-1.11-4.53 9 9 0 0 1 1.11-4.545 7.47 7.47 0 0 1 3.045-2.955 9.2 9.2 0 0 1 4.365-1.02m0 3.66a4.06 4.06 0 0 0-3 1.245 4.93 4.93 0 0 0-1.23 3.615 4.93 4.93 0 0 0 1.23 3.61 4.06 4.06 0 0 0 3 1.245 4.06 4.06 0 0 0 3-1.245 4.93 4.93 0 0 0 1.23-3.61 4.93 4.93 0 0 0-1.23-3.615 4.06 4.06 0 0 0-3-1.245m19.53-3.66a6.3 6.3 0 0 1 3.585.99 5.6 5.6 0 0 1 2.145 2.67v-9.03h4.2v22.2h-4.2v-3.48a5.67 5.67 0 0 1-2.15 2.68 6.25 6.25 0 0 1-3.58 1.01 7.14 7.14 0 0 1-3.78-1.02 6.9 6.9 0 0 1-2.625-2.955 10.25 10.25 0 0 1-.945-4.545 10.25 10.25 0 0 1 .945-4.545 6.9 6.9 0 0 1 2.625-2.955 7.14 7.14 0 0 1 3.78-1.02m1.32 3.69a4.14 4.14 0 0 0-3.18 1.29 5 5 0 0 0-1.2 3.54 4.94 4.94 0 0 0 1.2 3.525 4.16 4.16 0 0 0 3.18 1.275 4.18 4.18 0 0 0 3.16-1.305 4.85 4.85 0 0 0 1.245-3.5 4.9 4.9 0 0 0-1.245-3.52 4.18 4.18 0 0 0-3.16-1.305m29.85-3.48v16.62h-4.23v-3.36a5.3 5.3 0 0 1-2.175 2.625 6.47 6.47 0 0 1-3.5.945 5.89 5.89 0 0 1-4.59-1.89 7.6 7.6 0 0 1-1.71-5.28v-9.66h4.2v9.18a4.34 4.34 0 0 0 1.02 3.075 3.6 3.6 0 0 0 2.76 1.1 3.77 3.77 0 0 0 2.91-1.17 4.78 4.78 0 0 0 1.08-3.36v-8.82Zm12.81-.21a8.23 8.23 0 0 1 5.355 1.74 7.6 7.6 0 0 1 2.685 4.74h-4.47a3.45 3.45 0 0 0-1.23-2.085 3.78 3.78 0 0 0-2.43-.765 3.63 3.63 0 0 0-2.805 1.245 5.27 5.27 0 0 0-1.125 3.645 5.27 5.27 0 0 0 1.12 3.645 3.63 3.63 0 0 0 2.81 1.245 3.78 3.78 0 0 0 2.43-.765 3.45 3.45 0 0 0 1.23-2.085h4.47a7.6 7.6 0 0 1-2.685 4.74 8.23 8.23 0 0 1-5.355 1.74 8.85 8.85 0 0 1-4.32-1.035 7.3 7.3 0 0 1-2.94-2.955 9.3 9.3 0 0 1-1.05-4.53 9.4 9.4 0 0 1 1.05-4.545 7.16 7.16 0 0 1 2.94-2.955 8.95 8.95 0 0 1 4.32-1.02m21.42 13.2v3.63h-2.22a6.14 6.14 0 0 1-4.275-1.35q-1.485-1.35-1.485-4.5v-7.2h-2.31v-3.57h2.31v-4.11h4.23v4.11h3.72v3.57h-3.72v7.26a2.34 2.34 0 0 0 .48 1.68 2.24 2.24 0 0 0 1.62.48Zm20.25-13.2a9.2 9.2 0 0 1 4.365 1.02 7.47 7.47 0 0 1 3.045 2.955 9 9 0 0 1 1.11 4.545 8.9 8.9 0 0 1-1.11 4.53 7.6 7.6 0 0 1-3.045 2.955 9.1 9.1 0 0 1-4.365 1.035 9.1 9.1 0 0 1-4.37-1.035 7.6 7.6 0 0 1-3.04-2.955 8.9 8.9 0 0 1-1.11-4.53 9 9 0 0 1 1.11-4.545 7.47 7.47 0 0 1 3.04-2.955 9.2 9.2 0 0 1 4.37-1.02m0 3.66a4.06 4.06 0 0 0-3 1.245 4.93 4.93 0 0 0-1.23 3.615 4.93 4.93 0 0 0 1.23 3.61 4.06 4.06 0 0 0 3 1.245 4.06 4.06 0 0 0 3-1.245 4.93 4.93 0 0 0 1.23-3.61 4.93 4.93 0 0 0-1.23-3.615 4.06 4.06 0 0 0-3-1.245m21.24-6.33a3.6 3.6 0 0 0-2.61.54 2.97 2.97 0 0 0-.75 2.31v.03h3.36v3.57h-3.36v13.05h-4.23v-13.05h-2.13v-3.57h2.13v-.39a6 6 0 0 1 1.695-4.575 7.05 7.05 0 0 1 5.025-1.605q.57 0 .87.03Zm17.04 2.37v4.44h7.17v3.87h-7.17v4.71h8.07v4.11h-13.2v-21.21h13.2v4.08Zm21.96 12.72v4.41h-2.31a6.65 6.65 0 0 1-4.575-1.455q-1.635-1.455-1.635-4.815v-6.15h-2.25v-4.32h2.25v-4.11h5.13v4.11h3.36v4.32h-3.36v6.24a1.88 1.88 0 0 0 .4 1.38 1.94 1.94 0 0 0 1.365.39Zm15-12.51a5.8 5.8 0 0 1 4.575 1.92 7.7 7.7 0 0 1 1.7 5.28v9.72h-5.13v-9.12a3.7 3.7 0 0 0-.885-2.625 3.07 3.07 0 0 0-2.355-.945 3.2 3.2 0 0 0-2.475.99 4 4 0 0 0-.915 2.82v8.88h-5.13v-22.2h5.13v8.52a5.5 5.5 0 0 1 2.145-2.37 6.3 6.3 0 0 1 3.34-.87m27.06 8.1a7 7 0 0 1-.15 1.38h-11.61a3.88 3.88 0 0 0 .96 2.715 3.1 3.1 0 0 0 2.22.825 3.03 3.03 0 0 0 1.89-.57 2.66 2.66 0 0 0 .99-1.47h5.43a7.1 7.1 0 0 1-1.44 3.165 7.7 7.7 0 0 1-2.82 2.19 8.9 8.9 0 0 1-3.81.8 9 9 0 0 1-4.365-1.035 7.4 7.4 0 0 1-2.985-2.99 9.26 9.26 0 0 1-1.08-4.56 9.35 9.35 0 0 1 1.065-4.575 7.3 7.3 0 0 1 2.985-2.97 9.1 9.1 0 0 1 4.38-1.035 9.1 9.1 0 0 1 4.38 1.02 7.2 7.2 0 0 1 2.925 2.865 8.5 8.5 0 0 1 1.035 4.245m-5.19-.78a3.08 3.08 0 0 0-.885-2.475 3.26 3.26 0 0 0-2.265-.825 3.36 3.36 0 0 0-2.34.84 3.52 3.52 0 0 0-1.05 2.46Zm14.49-3.99a7.3 7.3 0 0 1 2.475-2.43 6.3 6.3 0 0 1 3.285-.9v5.49h-1.47a5.07 5.07 0 0 0-3.165.87 3.5 3.5 0 0 0-1.125 2.94v7.62h-5.13v-16.74h5.13Zm15.51-3.36a7.68 7.68 0 0 1 5.085 1.59 6.9 6.9 0 0 1 2.385 4.2h-4.8a2.66 2.66 0 0 0-.95-1.605 2.87 2.87 0 0 0-1.845-.585 2.02 2.02 0 0 0-1.32.375 1.31 1.31 0 0 0-.45 1.065 1.25 1.25 0 0 0 .825 1.17 13 13 0 0 0 2.6.78 26 26 0 0 1 3.15.915 5.2 5.2 0 0 1 2.13 1.515 4.2 4.2 0 0 1 .9 2.82 4.33 4.33 0 0 1-.78 2.55 5.14 5.14 0 0 1-2.25 1.74 8.8 8.8 0 0 1-3.48.63 8.96 8.96 0 0 1-5.43-1.5 6.33 6.33 0 0 1-2.49-4.29h4.95a2.23 2.23 0 0 0 .915 1.65 3.45 3.45 0 0 0 2.055.57 1.9 1.9 0 0 0 1.32-.405 1.36 1.36 0 0 0 .45-1.065 1.28 1.28 0 0 0-.825-1.245 15 15 0 0 0-2.685-.8 21.5 21.5 0 0 1-3.06-.84 5.05 5.05 0 0 1-2.07-1.455 4.05 4.05 0 0 1-.87-2.745 4.48 4.48 0 0 1 1.71-3.645 7.45 7.45 0 0 1 4.83-1.39m19.62 0a8.3 8.3 0 0 1 5.43 1.785 7.92 7.92 0 0 1 2.76 4.905h-5.43a2.87 2.87 0 0 0-.99-1.68 2.93 2.93 0 0 0-1.89-.6 2.74 2.74 0 0 0-2.22 1.065 4.8 4.8 0 0 0-.87 3.1 4.8 4.8 0 0 0 .87 3.105 2.74 2.74 0 0 0 2.22 1.07 2.93 2.93 0 0 0 1.89-.6 2.87 2.87 0 0 0 .99-1.68h5.43a7.92 7.92 0 0 1-2.76 4.9 8.3 8.3 0 0 1-5.43 1.79 9 9 0 0 1-4.365-1.035 7.4 7.4 0 0 1-2.985-2.985 9.26 9.26 0 0 1-1.08-4.56 9.35 9.35 0 0 1 1.065-4.575 7.3 7.3 0 0 1 2.985-2.97 9.1 9.1 0 0 1 4.38-1.035m18.72 0a6.06 6.06 0 0 1 3.3.87 5.23 5.23 0 0 1 2.04 2.37v-3.03h5.1v16.74h-5.1v-3.03a5.23 5.23 0 0 1-2.04 2.37 6.06 6.06 0 0 1-3.3.87 6.8 6.8 0 0 1-3.705-1.035 7.1 7.1 0 0 1-2.58-2.985 10.35 10.35 0 0 1-.945-4.56 10.3 10.3 0 0 1 .945-4.575 7.1 7.1 0 0 1 2.58-2.97 6.8 6.8 0 0 1 3.705-1.035m1.65 4.5a3.46 3.46 0 0 0-2.655 1.08 4.23 4.23 0 0 0-1.005 3 4.23 4.23 0 0 0 1.005 3 3.46 3.46 0 0 0 2.655 1.08 3.47 3.47 0 0 0 2.655-1.11 4.18 4.18 0 0 0 1.035-2.97 4.17 4.17 0 0 0-1.035-2.985 3.5 3.5 0 0 0-2.655-1.095m24.45-4.47a5.8 5.8 0 0 1 4.575 1.92 7.7 7.7 0 0 1 1.7 5.28v9.72h-5.13v-9.12a3.7 3.7 0 0 0-.885-2.625 3.07 3.07 0 0 0-2.355-.945 3.2 3.2 0 0 0-2.475.99 4 4 0 0 0-.915 2.82v8.88h-5.135v-16.74h5.13v3.06a5.5 5.5 0 0 1 2.145-2.37 6.3 6.3 0 0 1 3.345-.87" data-name="Path 124" opacity=".8"/><path d="M171.598 39.458a12.33 12.33 0 0 1 7.38 4.356 12.37 12.37 0 0 1 2.772 8.028 12.68 12.68 0 0 1-4.284 10.116q-4.284 3.708-12.42 3.708H143.23V14.834h21.384q7.7 0 11.844 3.384t4.14 9.5a11.85 11.85 0 0 1-2.484 7.776 11.55 11.55 0 0 1-6.516 3.964m-18.216-3.312h9.14a8.7 8.7 0 0 0 5.8-1.692 6.04 6.04 0 0 0 1.98-4.86 6.2 6.2 0 0 0-1.944-4.9q-1.944-1.728-5.976-1.728h-9Zm9.648 21.24a9.57 9.57 0 0 0 6.192-1.764 6.26 6.26 0 0 0 2.16-5.148 6.42 6.42 0 0 0-2.2-5.22 9.45 9.45 0 0 0-6.228-1.836h-9.572v13.968Zm39.6-32.112q7.272 0 11.664 3.672a15.9 15.9 0 0 1 5.472 9.792h-9.5a7.9 7.9 0 0 0-2.592-4.608 7.8 7.8 0 0 0-5.256-1.728 6.04 6.04 0 0 0-4.036 1.224 4.12 4.12 0 0 0-1.44 3.312 3.37 3.37 0 0 0 1.152 2.664 8.3 8.3 0 0 0 2.88 1.584q1.728.576 4.968 1.368a51 51 0 0 1 7.38 2.124 12.2 12.2 0 0 1 4.9 3.528 9.73 9.73 0 0 1 2.052 6.516 10.07 10.07 0 0 1-4 8.28q-3.996 3.164-10.764 3.164-7.776 0-12.456-3.488a14.68 14.68 0 0 1-5.688-9.972h9.72a6.57 6.57 0 0 0 2.592 4.644 9.4 9.4 0 0 0 5.832 1.692 5.64 5.64 0 0 0 3.96-1.26 4.25 4.25 0 0 0 1.368-3.276 3.62 3.62 0 0 0-1.188-2.808 8 8 0 0 0-2.952-1.656q-1.764-.576-5-1.368a56 56 0 0 1-7.236-2.052 11.55 11.55 0 0 1-4.752-3.348 9.4 9.4 0 0 1-1.98-6.336 10.37 10.37 0 0 1 3.96-8.424q3.956-3.24 10.94-3.24m43.128 0a19.74 19.74 0 0 1 12.852 4.176 18.24 18.24 0 0 1 6.444 11.376h-10.732a8.28 8.28 0 0 0-2.952-5 9.07 9.07 0 0 0-5.832-1.836 8.7 8.7 0 0 0-6.732 2.988q-2.7 2.988-2.7 8.748t2.7 8.748a8.7 8.7 0 0 0 6.732 2.988 9.07 9.07 0 0 0 5.832-1.836 8.28 8.28 0 0 0 2.952-5h10.728a18.24 18.24 0 0 1-6.444 11.376 19.74 19.74 0 0 1-12.848 4.164 21.2 21.2 0 0 1-10.368-2.48 17.46 17.46 0 0 1-7.056-7.092 22.3 22.3 0 0 1-2.52-10.872 22.5 22.5 0 0 1 2.52-10.908 17.2 17.2 0 0 1 7.056-7.092 21.5 21.5 0 0 1 10.368-2.448m61.416 26.5a13.8 13.8 0 0 1-1.944 7.164 13.96 13.96 0 0 1-5.76 5.256 20 20 0 0 1-9.288 1.972 24.1 24.1 0 0 1-9.648-1.836 16.3 16.3 0 0 1-6.8-5.292 15.27 15.27 0 0 1-2.916-8.064h10.8a8.25 8.25 0 0 0 2.484 5.148 7.8 7.8 0 0 0 5.652 2.052 6.58 6.58 0 0 0 4.86-1.692 5.9 5.9 0 0 0 1.692-4.356 5.7 5.7 0 0 0-1.368-3.924 10 10 0 0 0-3.456-2.484q-2.088-.936-5.76-2.16a57 57 0 0 1-7.776-3.132 14.4 14.4 0 0 1-5.148-4.5 12.9 12.9 0 0 1-2.124-7.7 12.53 12.53 0 0 1 4.716-10.332q4.716-3.78 12.492-3.78 8.064 0 12.852 3.888a14.68 14.68 0 0 1 5.432 10.364h-10.944a7.62 7.62 0 0 0-2.3-4.5 7.15 7.15 0 0 0-5.112-1.764 6.74 6.74 0 0 0-4.536 1.476 5.32 5.32 0 0 0-1.732 4.288 5.33 5.33 0 0 0 1.332 3.708 10.2 10.2 0 0 0 3.384 2.412 56 56 0 0 0 5.58 2.088 74 74 0 0 1 7.956 3.24 14 14 0 0 1 5.22 4.536 13.33 13.33 0 0 1 2.16 7.916Zm25.416-26.5a19.74 19.74 0 0 1 12.852 4.176 18.24 18.24 0 0 1 6.444 11.376h-10.728a8.28 8.28 0 0 0-2.952-5 9.07 9.07 0 0 0-5.832-1.836 8.7 8.7 0 0 0-6.732 2.988q-2.7 2.988-2.7 8.748t2.7 8.748a8.7 8.7 0 0 0 6.732 2.988 9.07 9.07 0 0 0 5.832-1.836 8.28 8.28 0 0 0 2.952-5h10.728a18.24 18.24 0 0 1-6.444 11.368 19.74 19.74 0 0 1-12.852 4.172 21.2 21.2 0 0 1-10.368-2.48 17.46 17.46 0 0 1-7.056-7.092 22.3 22.3 0 0 1-2.52-10.872 22.5 22.5 0 0 1 2.52-10.908 17.2 17.2 0 0 1 7.056-7.092 21.5 21.5 0 0 1 10.368-2.448m42.12 0a15.33 15.33 0 0 1 8.64 2.376 12.94 12.94 0 0 1 5.112 6.408v-8.28h10.08v39.888h-10.08v-8.352a13.13 13.13 0 0 1-5.112 6.444 15.16 15.16 0 0 1-8.64 2.408 17.13 17.13 0 0 1-9.072-2.448 16.54 16.54 0 0 1-6.3-7.092 24.6 24.6 0 0 1-2.268-10.908 24.6 24.6 0 0 1 2.268-10.908 16.54 16.54 0 0 1 6.3-7.092 17.13 17.13 0 0 1 9.072-2.444m3.168 8.856a9.93 9.93 0 0 0-7.632 3.1q-2.88 3.1-2.88 8.5t2.88 8.46a10 10 0 0 0 7.632 3.06 10.04 10.04 0 0 0 7.6-3.132 11.65 11.65 0 0 0 2.988-8.388 11.75 11.75 0 0 0-2.988-8.46 10.04 10.04 0 0 0-7.6-3.14m53.64-8.928a14.12 14.12 0 0 1 11.016 4.536q4.1 4.536 4.1 12.744v23.184h-10.08V43.634q0-4.752-2.448-7.38a8.7 8.7 0 0 0-6.7-2.628 8.95 8.95 0 0 0-6.912 2.808q-2.592 2.808-2.592 8.064v21.168h-10.144V25.778h10.152v7.988a12.7 12.7 0 0 1 5.22-6.3 15.5 15.5 0 0 1 8.392-2.264Z" data-name="Path 123"/></g></svg>