<svg xmlns="http://www.w3.org/2000/svg" width="159" height="36" fill="none" viewBox="0 0 159 36"><g fill="#222" clip-path="url(#a)"><path d="M15.003 1.876 25.22 4.899a.57.57 0 0 1 .333.325c.048.14.096.279.048.465a.73.73 0 0 1-.286.372c-.143.093-.285.093-.428.093l-9.883-2.86-9.81 2.883a.47.47 0 0 1-.43-.093c-.142-.093-.237-.186-.285-.372a.54.54 0 0 1 .048-.465c.047-.14.19-.232.333-.325z"/><path d="M29.791 6.642c0-.14-.095-.279-.19-.372-.096-.093-.239-.14-.381-.186-.143 0-.286 0-.381.046a.42.42 0 0 0-.286.28l-5.93 11.3H7.455L1.549 6.455q-.072-.14-.286-.279a.9.9 0 0 0-.38-.093c-.144 0-.286.093-.406.186-.095.093-.19.232-.19.372a28 28 0 0 0 .595 10.974c1.453 5.627 5.144 12.207 13.86 16.368l.285.14.286-.14c8.715-4.161 12.454-10.741 13.907-16.368a28.4 28.4 0 0 0 .571-10.974M2.144 17.337c-.666-2.743-.976-5.58-.785-8.416l5.143 9.788 6.977 13.183C6.454 27.916 3.383 22.243 2.144 17.337m12.86 14.695-6.86-12.997h13.74zm12.882-14.695c-1.262 4.953-4.358 10.626-11.382 14.555l7.024-13.183 5.144-9.788c.19 2.79-.048 5.626-.786 8.416m15.391 6.932c.213.208.479.39.771.519.293.13.585.182.904.156h11.776v-1.558H44.952a.87.87 0 0 1-.558-.207.83.83 0 0 1-.213-.545v-9.24c0-.104.027-.182.053-.286a.7.7 0 0 1 .16-.234c.08-.077.16-.13.24-.181.105-.052.185-.052.291-.052h11.803v-1.557H44.952c-.319 0-.611.052-.904.181a2.2 2.2 0 0 0-.77.493 2.1 2.1 0 0 0-.506.753c-.106.286-.186.571-.186.883v9.24c0 .311.053.597.16.882.133.286.319.545.531.753m22.596-13.185v13.86h12.972v-1.558h-11.35v-4.594h9.118V17.21h-9.118v-4.594h11.35v-1.557H65.874zm22.09 13.86V11.11h11.83c.638 0 1.223.26 1.675.674a2.25 2.25 0 0 1 .691 1.636v4.049c0 .311-.053.597-.186.882a2.1 2.1 0 0 1-.505.753c-.213.207-.479.39-.771.493-.293.104-.585.182-.904.156h-2.18l4.466 5.139v.026h-2.1l-4.44-5.165-5.98-.026v5.165h-1.596zm2.366-6.723h9.464c.106 0 .186-.026.292-.052a.8.8 0 0 0 .24-.155.6.6 0 0 0 .159-.234.9.9 0 0 0 .053-.286V13.42c0-.104-.026-.182-.053-.286a.7.7 0 0 0-.159-.234c-.053-.077-.16-.13-.24-.181-.079-.052-.186-.052-.292-.052h-9.464a1 1 0 0 0-.292.052.6.6 0 0 0-.24.181.6.6 0 0 0-.159.234.9.9 0 0 0-.053.286v4.049c0 .103.027.181.053.285a.47.47 0 0 0 .16.234.68.68 0 0 0 .531.233m26.557-5.58v12.303h1.595V12.64h6.3v-1.557h-14.195v1.557zm16.322-1.557h1.622v13.86h-1.622zm11.351 0v13.86h1.622v-6.152h4.572l5.29 6.152h2.073v-.026l-5.954-6.904 5.928-6.904v-.026h-2.047l-5.29 6.151h-4.572v-6.151z"/><path d="M134.856 24.97h-1.675V11.056h1.675zm-1.622-.053h1.569V11.11h-1.569zm24.909.052h-2.1l-5.29-6.125h-4.546v6.151h-1.675V11.083h1.675v6.152h4.519l5.29-6.152h2.1v.052l-5.928 6.904zm-2.074-.052h2.021l-5.955-6.904.027-.026 5.901-6.878h-1.994l-5.29 6.152h-4.625v-6.152h-1.569v13.808h1.569v-6.151h4.625zm-37.562.052h-1.648V12.666h-6.3v-1.609h14.249v1.61h-6.301zm-1.595-.052h1.542V12.615h6.3v-1.506h-14.142v1.506h6.3zm-14.806.052h-2.154l-4.439-5.139-5.928-.026v5.191h-1.648V11.083h11.856c.638 0 1.249.26 1.675.701.452.441.691 1.038.717 1.635v4.075c0 .312-.053.623-.186.909-.133.285-.292.545-.531.752-.213.208-.479.39-.771.52a2.3 2.3 0 0 1-.93.181h-2.1l4.412 5.113zm-2.127-.052h2.047l-4.466-5.165h2.233c.292 0 .611-.052.904-.181.292-.104.531-.286.744-.494.213-.207.399-.467.505-.752.107-.286.186-.571.186-.883v-4.049c0-.597-.266-1.168-.691-1.609a2.4 2.4 0 0 0-1.648-.675H87.99v13.808h1.542v-5.19l6.008.025zm-21.107.052H65.846V11.057h13.026v1.61h-11.35v4.516h9.117v1.635h-9.118v4.542h11.351zm-12.946-.052H78.82v-1.505H67.468v-4.646h9.118v-1.531h-9.118v-4.646h11.35v-1.506H65.927zm-9.144.052h-11.83c-.319 0-.638-.052-.93-.181-.293-.13-.559-.286-.771-.52a2.6 2.6 0 0 1-.532-.752 2.1 2.1 0 0 1-.186-.909v-9.24c0-.311.053-.623.186-.908s.292-.545.532-.753c.212-.207.478-.39.77-.519.293-.13.612-.182.931-.182h11.83v1.61h-11.83c-.106 0-.186.026-.292.051a.8.8 0 0 0-.24.156.38.38 0 0 0-.16.234 1 1 0 0 0-.052.26v9.24c0 .103.026.181.053.285.026.078.08.182.16.234q.12.116.239.155c.08.026.186.052.292.052h11.83zm-13.478-.726c.212.207.478.389.77.493s.586.181.905.155h11.75v-1.505H44.951a.94.94 0 0 1-.585-.208.8.8 0 0 1-.24-.57v-9.24c0-.104.027-.208.054-.286.027-.104.106-.182.16-.26a1 1 0 0 1 .265-.181c.107-.052.213-.052.32-.052h11.75v-1.506H44.951c-.319 0-.611.052-.904.182-.292.104-.532.285-.77.493a2.1 2.1 0 0 0-.506.753c-.106.285-.186.57-.186.882v9.24c0 .312.053.597.16.883.16.285.345.519.558.727m56.489-5.996h-9.464a.84.84 0 0 1-.584-.234.54.54 0 0 1-.16-.26c-.026-.103-.053-.18-.053-.285V13.42c0-.104.026-.207.053-.285.027-.104.106-.182.16-.26a1 1 0 0 1 .265-.181c.107-.052.213-.052.32-.052h9.463a1 1 0 0 1 .292.052.6.6 0 0 1 .24.181.54.54 0 0 1 .159.26c.027.104.053.181.053.285v4.05a.9.9 0 0 1-.053.285c-.026.104-.106.181-.159.26a.56.56 0 0 1-.266.155.46.46 0 0 1-.266.078m-9.464-5.554c-.106 0-.186.025-.292.051a.8.8 0 0 0-.24.156.6.6 0 0 0-.159.234 1 1 0 0 0-.053.26v4.048c0 .104.027.182.053.26q.04.117.16.233a.8.8 0 0 0 .531.208h9.464c.106 0 .186-.026.266-.052a.6.6 0 0 0 .239-.156.38.38 0 0 0 .16-.233 1 1 0 0 0 .053-.26v-4.049c0-.104-.027-.181-.053-.26a.6.6 0 0 0-.16-.233.4.4 0 0 0-.239-.156 1 1 0 0 0-.293-.051z"/></g><defs><clipPath id="a"><path fill="#222" d="M0 0h158.143v36H0z"/></clipPath></defs></svg>