<svg xmlns="http://www.w3.org/2000/svg" width="268" height="62"><path d="m38.838 45.114-11.166 4.799v-.48c-2.153.545-4.538.859-6.797.96-10.501-.101-18.836-5.534-18.933-11.999v-2.4c3.449 4.958 10.47 8.28 18.933 8.16 2.863.12 5.792-.328 8.253-.96l.971-2.4c-2.919.861-6.105 1.46-9.224 1.44-10.501.02-18.836-5.413-18.933-11.998v-1.92c3.449 4.583 10.455 7.906 18.933 7.679 3.814.227 7.544-.566 10.68-1.92l.486-2.4c-3.064 1.598-7.035 2.526-11.166 2.4-10.501.126-18.836-5.307-18.933-11.998v-1.92c3.449 4.69 10.47 8.012 18.933 8.159 4.81-.147 9.37-1.404 13.108-3.36l.486-2.88c-3.393 2.486-8.346 4.088-13.594 4.32C10.374 26.164 2.04 20.73 1.942 13.918 2.039 7.439 10.374 2.006 20.875 1.92c6.26.086 12.074 2.256 15.536 5.759l.337.555 2.448.01-.358-.565C35.395 3.053 28.509 0 20.875 0 9.256 0 0 6.331 0 13.918v24.956c.408 7.406 9.453 13.438 20.875 13.438 7.544 0 14.324-2.933 17.963-7.198"/><path d="m34.296 62 3.92-16.469-11.269 4.844 6.86-28.578h-13.23l3.43-14.047h42.136l-3.43 14.047H48.995l-2.94 7.75 15.188-6.297zm6.86-19.86-1.96 9.688L55.364 27.61l-13.229 5.813 5.88-13.563h13.228l2.45-10.172H25.477l-2.45 10.172h13.229l-6.37 27.125 11.27-4.843zm54.015-25.113q-.174 2.409-1.779 3.794-1.605 1.384-4.23 1.384-2.87 0-4.516-1.933Q83 18.34 83 14.966v-.913q0-2.153.759-3.794.76-1.64 2.168-2.517 1.41-.877 3.277-.877 2.583 0 4.163 1.385 1.578 1.384 1.825 3.886h-3.076q-.113-1.446-.805-2.097t-2.107-.651q-1.539 0-2.302 1.102t-.785 3.42v1.128q0 2.42.733 3.537.734 1.118 2.313 1.118 1.425 0 2.127-.651.703-.651.805-2.015zm15.884-2.153q0 2.205-.78 3.865-.778 1.662-2.23 2.564-1.45.902-3.327.902-1.856 0-3.312-.892t-2.256-2.548-.81-3.81v-.738q0-2.205.795-3.88.795-1.677 2.246-2.575 1.45-.897 3.317-.897 1.866 0 3.317.897 1.451.898 2.245 2.574.795 1.677.795 3.871zm-3.117-.677q0-2.349-.84-3.569-.841-1.22-2.4-1.22-1.549 0-2.39 1.205-.84 1.204-.85 3.533v.728q0 2.287.84 3.547.84 1.262 2.42 1.262 1.548 0 2.38-1.215.83-1.215.84-3.543zM118.16 22h-3.076V7.07h3.076zm16.592 0h-3.077l-5.988-9.823V22h-3.076V7.07h3.076l5.999 9.844V7.07h3.066zM149.98 9.562h-4.573V22h-3.076V9.562h-4.512V7.07h12.161zm12.336 5.968h-5.906v3.999h6.931V22h-10.008V7.07h9.988v2.492h-6.911v3.558h5.906zm7.506 3.999h6.532V22h-9.608V7.07h3.076v12.46zm18.878-4h-5.906v4h6.931V22h-10.007V7.07h9.987v2.492h-6.911v3.558h5.906v2.41zm16.243 4.584q-.831.995-2.349 1.543-1.517.55-3.363.55-1.938 0-3.399-.847-1.461-.846-2.256-2.456t-.815-3.783v-1.016q0-2.235.754-3.87t2.173-2.502 3.328-.867q2.655 0 4.153 1.267t1.774 3.686h-2.995q-.204-1.282-.907-1.877-.702-.594-1.933-.594-1.569 0-2.39 1.179-.82 1.179-.83 3.507v.953q0 2.349.892 3.548.893 1.2 2.615 1.2 1.733 0 2.471-.738v-2.574h-2.799v-2.266h5.876zm9.618-3.578h-2.45V22h-3.077V7.07h5.548q2.645 0 4.08 1.18 1.436 1.178 1.436 3.332 0 1.528-.661 2.548-.662 1.02-2.005 1.625l3.23 6.101V22h-3.302zm-2.45-2.492h2.48q1.16 0 1.795-.59.636-.589.636-1.625 0-1.056-.6-1.661t-1.84-.605h-2.472v4.481zm20.354 4.88h-5.394L226.046 22h-3.271l5.558-14.93h2.85L236.771 22h-3.27l-1.036-3.076zm-4.563-2.49h3.732l-1.876-5.59zm14.94.307V22h-3.076V7.07h5.824q1.681 0 2.958.616 1.278.614 1.964 1.748.687 1.133.687 2.579 0 2.194-1.502 3.46t-4.158 1.267zm0-2.492h2.748q1.22 0 1.861-.574.642-.575.641-1.64 0-1.098-.646-1.775-.645-.675-1.784-.697h-2.82zM267.062 22h-3.076v-6.398h-5.998V22h-3.077V7.07h3.077v6.05h5.998V7.07h3.076zM91.46 35.83h-3.326V45h-1.838v-9.17H83v-1.494h8.46zm3.58 2.11q.871-1.011 2.205-1.011 2.534 0 2.57 2.893V45h-1.779v-5.112q0-.82-.355-1.161-.355-.34-1.044-.34-1.07 0-1.597.951V45h-1.78V33.75h1.78zm10.664 7.206q-1.692 0-2.743-1.065-1.05-1.066-1.051-2.838v-.22q0-1.187.458-2.12a3.5 3.5 0 0 1 1.285-1.454 3.4 3.4 0 0 1 1.846-.52q1.619 0 2.501 1.032.883 1.033.883 2.923v.718h-5.179q.081.98.656 1.552c.575.572.865.572 1.446.572q1.224 0 1.993-.99l.96.916a3.2 3.2 0 0 1-1.272 1.103q-.795.39-1.783.391m-.212-6.79q-.733 0-1.183.514-.45.511-.575 1.428h3.39v-.132q-.058-.894-.475-1.351-.418-.458-1.157-.458zM115.825 45v-6.606h-1.209v-1.319h1.209v-.725q0-1.319.732-2.036.733-.718 2.051-.718.47 0 .996.132l-.044 1.392a3.5 3.5 0 0 0-.681-.059q-1.275 0-1.274 1.311v.703h1.61v1.319h-1.61V45zm10.092-.776q-.784.922-2.227.922-1.289 0-1.951-.754t-.663-2.183v-5.134h1.78v5.112q0 1.51 1.252 1.51 1.297 0 1.75-.93v-5.692h1.78V45h-1.677zm6.364-9.075v1.926h1.4v1.319h-1.4v4.423q0 .455.18.656c.18.201.333.201.64.201q.308 0 .623-.073v1.377a4.4 4.4 0 0 1-1.172.168q-2.05 0-2.05-2.263v-4.49h-1.304v-1.318h1.303V35.15zm8.159 9.075q-.784.922-2.227.922-1.29 0-1.952-.754-.663-.754-.663-2.183v-5.134h1.78v5.112q0 1.51 1.253 1.51 1.296 0 1.75-.93v-5.692h1.78V45h-1.677zm8.283-5.523a4.4 4.4 0 0 0-.725-.058q-1.224 0-1.648.937V45h-1.78v-7.925h1.7l.043.886q.645-1.032 1.787-1.032.381 0 .63.102zm5.075 6.445q-1.692 0-2.743-1.065-1.05-1.066-1.051-2.838v-.22q0-1.187.458-2.12a3.5 3.5 0 0 1 1.285-1.454 3.4 3.4 0 0 1 1.846-.52q1.619 0 2.501 1.032t.883 2.923v.718h-5.179q.081.98.656 1.552c.575.572.865.572 1.446.572q1.224 0 1.993-.99l.96.916a3.2 3.2 0 0 1-1.272 1.103q-.795.39-1.783.391m-.212-6.79q-.733 0-1.183.514-.45.512-.575 1.428h3.39v-.132q-.057-.894-.475-1.351-.418-.458-1.157-.458zm9.373 2.608q0-1.164.462-2.098a3.37 3.37 0 0 1 1.296-1.436q.835-.501 1.92-.501 1.602 0 2.603 1.032 1 1.033 1.08 2.74l.008.417q0 1.172-.45 2.095a3.33 3.33 0 0 1-1.29 1.428q-.839.505-1.937.505-1.677 0-2.685-1.116-1.006-1.118-1.007-2.978zm1.78.154q0 1.224.506 1.915.504.693 1.406.693.9 0 1.402-.704.502-.702.502-2.058 0-1.2-.516-1.904-.517-.703-1.403-.703-.87 0-1.384.692t-.513 2.07zM173.06 45v-6.606h-1.209v-1.319h1.209v-.725q0-1.319.732-2.036.733-.718 2.051-.718.47 0 .996.132l-.044 1.392a3.5 3.5 0 0 0-.68-.059q-1.275 0-1.275 1.311v.703h1.611v1.319h-1.611V45zm11.3-7.925.051.828q.836-.974 2.285-.974 1.59 0 2.176 1.216.864-1.216 2.431-1.216 1.311 0 1.952.725.64.725.656 2.138V45h-1.78v-5.156q0-.755-.33-1.106t-1.09-.352q-.609 0-.993.326a1.7 1.7 0 0 0-.539.853l.008 5.435h-1.78v-5.215q-.037-1.398-1.428-1.399-1.07 0-1.516.872V45h-1.78v-7.925zm11.645 3.89q0-1.165.461-2.099a3.37 3.37 0 0 1 1.297-1.436q.834-.501 1.919-.501 1.604 0 2.603 1.032t1.08 2.74l.008.417q0 1.172-.45 2.095a3.33 3.33 0 0 1-1.29 1.428q-.838.505-1.937.505-1.677 0-2.684-1.116-1.007-1.118-1.007-2.978v-.088zm1.78.153q0 1.224.505 1.915.506.693 1.406.693t1.403-.704q.502-.702.502-2.058 0-1.2-.517-1.904-.517-.703-1.402-.703-.872 0-1.385.692-.512.692-.512 2.07zm9.345-4.043.051.916q.879-1.062 2.307-1.062 2.475 0 2.52 2.834V45h-1.78v-5.134q0-.755-.326-1.117-.325-.363-1.066-.363-1.076 0-1.604.974V45h-1.78v-7.925zm10.78 8.071q-1.691 0-2.742-1.065-1.051-1.066-1.051-2.838v-.22q0-1.187.457-2.12a3.5 3.5 0 0 1 1.286-1.454 3.4 3.4 0 0 1 1.845-.52q1.62 0 2.502 1.032t.882 2.923v.718h-5.178q.08.98.655 1.552t1.447.572q1.223 0 1.992-.99l.96.916a3.2 3.2 0 0 1-1.271 1.103q-.794.39-1.784.391m-.212-6.79q-.732 0-1.183.514-.45.511-.575 1.428h3.391v-.132q-.058-.894-.476-1.351-.417-.458-1.157-.458zm8.049 4.095 1.611-5.376h1.897l-3.15 9.126q-.725 2-2.46 2a3.2 3.2 0 0 1-.857-.132v-1.377l.337.022q.673 0 1.014-.245.341-.246.538-.824l.257-.682-2.783-7.888h1.919z"/></svg>