<svg xmlns="http://www.w3.org/2000/svg" width="153" height="37" fill="none" viewBox="0 0 153 37"><path fill="#8DC63F" d="M17.687.287c9.816 0 17.733 8.037 17.733 18.047 0 9.87-8.01 18-17.872 17.953C8.01 36.193 0 28.203 0 18.287 0 8.324 7.871.24 17.687.287m-13.474 27.4c0 .188.093.281.186.422.694.987 1.481 1.927 2.407 2.726.417.376.834.752 1.297 1.081 1.296.846 2.639 1.645 4.12 2.162 1.204.423 2.454.752 3.704.893.973.094 1.992.141 2.964 0 .555-.094 1.157-.094 1.713-.329.093.047.139-.047.185-.047 1.158-.188 2.269-.564 3.38-1.034 3.612-1.598 6.343-4.183 8.103-7.754 1.574-3.15 2.083-6.486 1.574-9.964-.463-3.336-1.852-6.25-4.074-8.694-2.964-3.43-6.76-5.217-11.252-5.499a14.75 14.75 0 0 0-5.88.8C9.538 3.482 6.991 5.268 4.908 7.853c-2.361 2.96-3.519 6.344-3.658 10.104-.046.94.046 1.833.185 2.773a16 16 0 0 0 2.038 5.97c.277.282.463.658.74.986"/><path fill="#8BC53F" d="M20.604 34.596c-.556.282-1.158.282-1.713.329-.973.14-1.991.094-2.963 0-1.25-.141-2.5-.47-3.705-.893-1.481-.517-2.824-1.316-4.12-2.162-.463-.329-.88-.705-1.297-1.08-.926-.8-1.713-1.74-2.407-2.727-.093-.14-.186-.282-.186-.423 1.112-2.538 1.528-5.216 1.76-7.942.092-1.27.139-2.538.37-3.807.232-1.457.787-2.773 1.806-3.9.926-.988 2.083-1.646 3.334-2.116 1.018-.423 2.083-.798 3.24-.845 1.066-.047 2.084.094 3.103.328 1.528.376 3.056.846 4.491 1.551 1.157.47 2.361.94 3.565 1.316 1.25.376 2.5.8 3.565 1.598q2.014 1.551 1.111 3.948c-.37.987-1.064 1.739-1.759 2.49-1.25 1.317-2.593 2.539-3.797 3.902-1.389 1.644-2.639 3.336-3.518 5.31-.741 1.645-1.158 3.337-.88 5.123m8.936-15.462c-.046 0-.093 0-.139.047-.046 0-.093.047-.093.094v.047c.047 0 .093-.047.093-.094zc.046 0 .093 0 0 0 .046-.047 0 0 0 0m-14.168-8.178c-1.76 0-3.195 1.457-3.195 3.196a3.25 3.25 0 0 0 3.149 3.243c1.759 0 3.148-1.457 3.194-3.243 0-1.786-1.389-3.196-3.148-3.196m2.593 9.87c.277.423.787.799 1.389.987 1.204.423 2.407.423 3.611.188 2.13-.423 4.121-1.175 5.927-2.397.092-.094.277-.094.324-.282-.093-.047-.14 0-.185.047-.602.376-1.25.658-1.899.94-1.667.705-3.426 1.175-5.278 1.269-1.343.094-2.685 0-3.89-.752m8.75-2.773c.371 0 .695-.33.695-.752a.663.663 0 0 0-.74-.658c-.371 0-.649.329-.649.705 0 .423.278.705.695.705"/><path fill="#F9E988" d="M17.78 9.358c-1.02-.188-2.038-.376-3.103-.329-1.157.047-2.176.423-3.24.846-1.25.47-2.408 1.128-3.334 2.115-1.019 1.081-1.575 2.397-1.806 3.9-.185 1.27-.232 2.539-.37 3.808-.232 2.725-.649 5.451-1.76 7.942-.324-.282-.51-.705-.694-1.034a16 16 0 0 1-2.038-5.969c-.139-.94-.231-1.832-.185-2.772.139-3.76 1.297-7.144 3.658-10.105 2.037-2.584 4.63-4.37 7.732-5.404a16.6 16.6 0 0 1 5.88-.8c4.445.283 8.242 2.116 11.252 5.452 2.222 2.491 3.565 5.405 4.074 8.695.51 3.478 0 6.814-1.574 9.963-1.76 3.572-4.491 6.157-8.103 7.755-1.065.47-2.176.846-3.38 1.034-.093 0-.139.14-.185.047-.278-1.786.139-3.478.833-5.123.88-1.974 2.13-3.666 3.52-5.31 1.157-1.364 2.5-2.633 3.796-3.901.74-.752 1.389-1.504 1.76-2.491q.971-2.397-1.112-3.948c-1.065-.799-2.315-1.222-3.565-1.598-1.204-.376-2.408-.846-3.565-1.316-.232-.799-.787-1.316-1.528-1.598-.973-.235-1.945-.14-2.963.141m15.14 10.01h.093c.185-.657.185-1.362.185-2.067 0-.8-.093-1.598-.232-2.397a13.54 13.54 0 0 0-3.472-6.768c-1.111-1.175-2.362-2.162-3.612-3.195-1.111-.94-2.315-1.645-3.704-2.021-1.343-.33-2.639-.517-4.028-.282-.093 0-.185 0-.185.094s.092.094.185.094c2.037.376 3.982 1.034 5.88 1.786 1.852.752 3.426 1.832 4.584 3.524.787 1.175 1.528 2.397 2.13 3.713.787 1.786 1.389 3.619 1.76 5.499.184.752.323 1.363.416 2.02"/><path fill="#FCFDFB" d="M15.372 10.956c1.76 0 3.148 1.457 3.148 3.196 0 1.786-1.435 3.196-3.194 3.243-1.76 0-3.149-1.457-3.149-3.243a3.185 3.185 0 0 1 3.195-3.196m2.222 3.243c0-1.27-.972-2.256-2.222-2.256s-2.223.987-2.223 2.256c0 1.222.973 2.256 2.177 2.256h.046c1.204 0 2.176-.987 2.222-2.256"/><path fill="#009345" d="M17.965 20.826c1.204.752 2.546.846 3.889.799a14.5 14.5 0 0 0 5.278-1.27c.648-.281 1.297-.563 1.899-.94.046-.046.092-.093.185-.046-.046.14-.185.188-.324.282-1.806 1.222-3.797 1.974-5.927 2.396-1.204.235-2.454.235-3.611-.187-.602-.235-1.158-.611-1.39-1.034m-.186-11.468c.973-.282 1.991-.376 2.964 0 .74.282 1.296.8 1.528 1.598-1.39-.752-2.917-1.222-4.492-1.598"/><path fill="#5D6357" d="M17.965 20.826c1.203.751 2.546.845 3.889.798a14.5 14.5 0 0 0 5.278-1.268c.648-.283 1.297-.564 1.898-.94.047-.047.093-.094.186-.047-.047.14-.186.188-.324.282-1.806 1.221-3.797 1.973-5.927 2.396-1.204.235-2.454.235-3.611-.188-.602-.235-1.158-.61-1.39-1.033"/><path fill="#FCFDFB" d="M26.716 18.053a.72.72 0 0 1-.695-.705c0-.376.278-.705.649-.705.37 0 .694.282.74.658-.046.423-.324.752-.694.752"/><path fill="#A9ACBF" d="M29.401 19.227c0 .047-.046.094-.093.094 0-.094.047-.14.093-.094m.139-.094-.139.094-.046-.047c.092-.047.139-.047.185-.047"/><path fill="#FFFEFC" d="M32.92 19.369c-.139-.659-.278-1.27-.37-1.927-.37-1.927-1.02-3.76-1.76-5.499-.555-1.316-1.296-2.538-2.13-3.713-1.157-1.692-2.685-2.773-4.584-3.525-1.944-.751-3.843-1.456-5.88-1.785-.092 0-.185 0-.185-.094s.093-.094.185-.094c1.343-.235 2.686-.094 4.028.282 1.39.376 2.593 1.127 3.704 2.02 1.25 1.034 2.5 2.021 3.612 3.196a13.54 13.54 0 0 1 3.473 6.768c.139.799.231 1.598.231 2.397 0 .658 0 1.363-.185 2.067z"/><path fill="#58595B" d="M17.594 14.199c0 1.222-.972 2.256-2.176 2.256h-.046c-1.204 0-2.222-.987-2.222-2.256v-.047c0-1.27 1.018-2.256 2.222-2.256s2.222 1.034 2.222 2.303"/><path fill="#222" d="M103.973 24.131c-.055.055-.109.055-.163.11-1.684 1.93-3.802 2.261-6.084 1.655-2.824-.717-4.345-2.757-4.942-5.569-.38-1.82-.272-3.639.434-5.348 1.25-3.032 4.074-4.686 7.279-4.245 1.466.22 2.824.717 3.856 1.82.76.826 1.195 1.819 1.358 2.922.054.22-.054.275-.217.275h-2.01c-.163 0-.217-.055-.272-.22-.326-1.489-1.303-2.316-2.715-2.592-1.63-.33-3.042 0-4.129 1.324-.977 1.213-1.249 2.701-1.249 4.245 0 1.158.218 2.26.706 3.253 1.141 2.205 3.965 2.977 6.084 1.709 1.195-.717 1.575-1.875 1.684-3.198 0-.276-.163-.22-.326-.22h-3.205c-.326 0-.38-.11-.38-.386v-1.268c0-.276.108-.331.326-.331h5.594c.218 0 .326.055.326.275v7.223c0 .22-.054.275-.271.275-.435 0-.978.11-1.304-.055-.326-.22-.217-.771-.326-1.213 0-.165-.054-.33-.054-.44m-43.019-8.38h-1.032c-.217 0-.271-.055-.326-.275-.434-1.544-1.412-2.482-2.987-2.647-1.738-.165-3.205.386-4.074 1.985-1.303 2.426-1.25 4.907.054 7.277.87 1.6 2.77 2.316 4.509 1.82 1.52-.441 2.227-1.599 2.553-3.088.108-.606.108-.606.706-.606h1.63c.216 0 .27.055.216.276-.271 2.922-2.118 5.182-4.942 5.623-4.074.662-7.442-1.874-8.094-6.01-.271-1.819-.108-3.583.598-5.292 1.25-2.867 4.02-4.41 7.115-4.025 1.467.22 2.825.717 3.911 1.82.76.827 1.195 1.819 1.358 2.922.054.22 0 .275-.217.275-.272-.11-.652-.055-.978-.055m79.954 10.034h-2.607c-.217 0-.326-.11-.38-.275-.924-1.544-1.901-3.033-2.825-4.576-.163-.276-.217-.276-.489-.056-.923.662-1.303 1.544-1.14 2.702.108.607 0 1.268 0 1.93 0 .275-.109.33-.326.33h-1.63c-.271 0-.326-.11-.326-.385V11.45c0-.386.109-.496.489-.441q.734.082 1.467 0c.326 0 .38.11.38.386v7.883l.109.056c.163-.22.38-.441.543-.662a191 191 0 0 1 3.313-3.418c.109-.11.217-.22.38-.22h2.607c0 .165-.162.22-.217.33-1.14 1.103-2.227 2.206-3.422 3.308-.271.22-.271.386-.054.717l3.911 5.954c0 .166.108.276.217.441m-26.832-4.741h-3.531c-.271 0-.326.055-.326.33.109 2.15 2.064 3.474 4.02 2.647.543-.22.977-.662 1.195-1.268.108-.276.271-.33.488-.33h1.521c.272 0 .326.054.218.33-.598 1.93-1.902 2.977-3.857 3.253-1.738.276-3.368-.11-4.617-1.434-.869-.937-1.249-2.15-1.358-3.418-.108-1.544.109-3.032 1.087-4.355 1.249-1.654 2.933-2.26 4.888-1.93 2.064.386 3.313 1.71 3.911 3.694.217.717.271 1.433.217 2.205 0 .276-.108.331-.326.331-1.14-.055-2.335-.055-3.53-.055m-1.141-1.544h2.39c.272 0 .326-.055.272-.33-.218-1.434-1.25-2.482-2.608-2.537-1.412-.055-2.553.938-2.77 2.426-.054.276 0 .386.326.386.815.055 1.575.055 2.39.055m-49.156.938c0-.662.108-1.379.271-2.04.706-2.316 2.716-3.75 5.215-3.584 1.9.11 3.476.772 4.4 2.48 1.086 2.096 1.086 4.301-.055 6.341-1.032 1.93-2.825 2.536-4.889 2.426-3.096-.165-4.942-2.316-4.942-5.623m2.335 0c0 .937.163 1.764.706 2.536.87 1.268 2.553 1.654 3.803.771.271-.22.543-.44.76-.716.923-1.379.978-3.694 0-5.128-1.14-1.654-3.53-1.654-4.617.055-.489.717-.652 1.6-.652 2.482m75.391.055c0-1.544.326-2.922 1.358-4.08 1.032-1.213 2.445-1.654 3.966-1.654 1.52 0 2.933.44 4.019 1.654 1.141 1.323 1.412 2.922 1.304 4.63-.055.607-.163 1.214-.381 1.765-.814 2.15-2.77 3.363-5.268 3.198-2.933-.166-4.78-2.095-4.943-5.072 0-.11-.055-.331-.055-.441m8.311.11c0-1.103-.272-2.04-.652-2.702-.815-1.323-2.553-1.654-3.802-.827q-.49.33-.815.827c-.923 1.379-.869 3.694 0 5.017.869 1.268 2.553 1.654 3.802.772.326-.22.544-.44.761-.772.543-.716.706-1.598.706-2.315m-66.375-4.025c.652-.827 1.412-1.433 2.444-1.709.924-.22 1.847-.165 2.716.22 1.304.552 1.847 1.71 1.901 3.088.055 2.426 0 4.852 0 7.278 0 .275-.054.33-.326.33h-1.63c-.27 0-.38-.055-.38-.386v-6.175c0-.44-.054-.882-.162-1.268-.326-1.102-1.358-1.543-2.607-1.212-1.087.33-1.793 1.323-1.793 2.59v6.01c0 .331-.054.496-.434.441a7 7 0 0 0-1.521 0c-.272 0-.38-.055-.38-.386V15.53c0-.386.108-.497.488-.441.49.055.924 0 1.413 0 .271 0 .38.055.326.33-.055.386-.055.772-.055 1.158m44.54 2.095h-.163c-.598.055-.978 0-1.25-.716-.651-1.655-3.259-1.71-4.345-.166-.38.496-.543 1.103-.652 1.764-.108 1.048-.108 2.095.326 3.088.543 1.213 1.521 1.764 2.77 1.599 1.032-.166 1.739-.827 2.01-1.985.054-.331.217-.441.543-.386h1.575c.272 0 .326.11.272.33-.543 2.647-2.39 4.136-5.106 3.97s-4.508-1.985-4.725-4.796c-.109-1.213 0-2.426.489-3.584.814-1.93 2.661-3.032 4.834-2.922 1.303.055 2.498.386 3.476 1.323.597.607.923 1.379 1.086 2.206q.082.413-.326.33c-.217-.055-.488-.055-.814-.055m-49.265 1.82v4.796c0 .441-.109.551-.49.496a6 6 0 0 0-1.411 0c-.326 0-.435-.055-.435-.44V15.42c0-.275.054-.33.326-.33h1.63c.325 0 .434.055.434.44-.054 1.655-.054 3.309-.054 4.963m-1.087-9.483c.326.055.815-.166 1.032.055.218.22.055.717.055 1.103 0 .33.163.771-.055.992-.217.22-.651.055-.977.055-.435 0-.978.165-1.25-.055-.217-.276-.054-.827-.054-1.213 0-.937 0-.937.923-.937z"/></svg>